<svg xmlns="http://www.w3.org/2000/svg" width="70" height="12" viewBox="358 348 70 12" fill="none"><g id="Radiobutton "><g id="Radiobutton _2"><g id="Type=Default" clip-path="url(#clip0_1_2)">
<g id="Radiobutton icon_6">
<g id="container_9">
<g id="Union_43">
<path d="M368 352V351H367V352L368 352Z" fill="#DEDEDE" />
<path d="M368 356H369V352H368V356Z" fill="#DEDEDE" />
<path d="M366 358H368V356H367V357H366V358Z" fill="#DEDEDE" />
<path fill-rule="evenodd" clip-rule="evenodd" d="M362 358V357H360V358H362ZM362 358H366V359H362V358Z" fill="#DEDEDE" />
</g>
<path id="Union_44" fill-rule="evenodd" clip-rule="evenodd" d="M366 350H362V351H361V352H360V356H361V357H362V358H360V359H362V360H366V359H368V358H369V356H370V352H369V350H368V352H367V351H366V350ZM368 356V352H369V356H368ZM366 358H362V359H366V358ZM366 358V357H367V356H368V358H366Z" fill="white" />
<g id="Union_45">
<path fill-rule="evenodd" clip-rule="evenodd" d="M362 349H366V350H362V349ZM366 350V351H368V350H366Z" fill="black" />
<path d="M360 352V350H362V351H361V352H360Z" fill="black" />
<path fill-rule="evenodd" clip-rule="evenodd" d="M360 356H359V352H360V356ZM360 356H361V357H360V356Z" fill="black" />
</g>
<path id="Union_46" d="M366 348H362V349H360V350H359V352H358V356H359V358H360V356H359V352H360V350H362V349H366V350H368V349H366V348Z" fill="#808080" />
</g>
</g>
<path id="Placeholder" d="M377.419 350.971V353.611H380.939V354.491H377.419V358H376.55V350.091H380.939V350.971H377.419ZM381.819 353.611H380.939V350.971H381.819V353.611ZM383.8 358H382.931V350.091H383.8V358ZM388.416 353.611H385.776V352.72H388.416V353.611ZM385.776 357.131H384.907V355.36H385.776V357.131ZM388.416 353.611H389.296V358H385.776V357.131H388.416V355.36H385.776V354.491H388.416V353.611ZM394.796 357.131H393.916V356.251H394.796V357.131ZM391.276 357.131H390.407V353.611H391.276V357.131ZM393.916 358.011H391.276V357.131H393.916V358.011ZM393.916 353.611H391.276V352.731H393.916V353.611ZM394.796 354.491H393.916V353.611H394.796V354.491ZM399.416 358.011H396.776V357.131H399.416V358.011ZM400.296 357.131H399.416V356.251H400.296V357.131ZM399.416 353.611H396.776V352.731H399.416V353.611ZM400.296 355.371H396.776V357.131H395.907V353.611H396.776V354.491H399.416V353.611H400.296V355.371ZM402.276 350.091V353.611H403.156V354.491H402.276V358H401.407V350.091H402.276ZM404.916 353.611H403.156V352.731H404.916V353.611ZM405.796 358.011H404.916V353.611H405.796V358.011ZM410.416 358.011H407.776V357.131H410.416V358.011ZM407.776 357.131H406.907V353.611H407.776V357.131ZM410.416 353.611H407.776V352.731H410.416V353.611ZM411.296 357.131H410.416V353.611H411.296V357.131ZM413.276 358H412.407V350.091H413.276V358ZM415.253 357.131H414.384V353.611H415.253V357.131ZM417.893 350.091H418.773V358H415.253V357.131H417.893V353.611H415.253V352.72H417.893V350.091ZM423.393 358.011H420.753V357.131H423.393V358.011ZM424.273 357.131H423.393V356.251H424.273V357.131ZM423.393 353.611H420.753V352.731H423.393V353.611ZM424.273 355.371H420.753V357.131H419.884V353.611H420.753V354.491H423.393V353.611H424.273V355.371ZM425.384 352.72H427.133V353.611H426.253V358H425.384V352.72Z" fill="white" />
</g>
</g></g><defs><clipPath id="clip0_1_2">
<rect width="70" height="12" fill="white" transform="translate(358 348)" />
</clipPath>
</defs></svg>