<svg xmlns="http://www.w3.org/2000/svg" width="607" height="504" viewBox="0 0 607 504" fill="none"><g id=" Checkbox">
<g id="Window frame" filter="url(#filter0_iiii_1_2)">
<rect width="607" height="504" fill="#C0C0C0" />
</g>
<g id="Checkbox icon Instance Table">
<g id="Instances">
<rect x="145.5" y="76.5" width="245" height="121" rx="4.5" stroke="#000080" stroke-dasharray="10 5" />
<g id="Row">
<g id="Instance">
<mask id="path-2-inside-1_1_2" fill="white">
<path d="M145 76H265V137H145V76Z" />
</mask>
<path d="M265 137V137.5H265.5V137H265ZM145 137.5H150V136.5H145V137.5ZM155 137.5H165V136.5H155V137.5ZM170 137.5H180V136.5H170V137.5ZM185 137.5H195V136.5H185V137.5ZM200 137.5H210V136.5H200V137.5ZM215 137.5H225V136.5H215V137.5ZM230 137.5H240V136.5H230V137.5ZM245 137.5H255V136.5H245V137.5ZM260 137.5H265V136.5H260V137.5ZM265.5 137V131.917H264.5V137H265.5ZM265.5 126.833V116.667H264.5V126.833H265.5ZM265.5 111.583V101.417H264.5V111.583H265.5ZM265.5 96.3333V86.1667H264.5V96.3333H265.5ZM265.5 81.0833V76H264.5V81.0833H265.5ZM265 137V138H266V137H265ZM145 138H150V136H145V138ZM155 138H165V136H155V138ZM170 138H180V136H170V138ZM185 138H195V136H185V138ZM200 138H210V136H200V138ZM215 138H225V136H215V138ZM230 138H240V136H230V138ZM245 138H255V136H245V138ZM260 138H265V136H260V138ZM266 137V131.917H264V137H266ZM266 126.833V116.667H264V126.833H266ZM266 111.583V101.417H264V111.583H266ZM266 96.3333V86.1667H264V96.3333H266ZM266 81.0833V76H264V81.0833H266Z" fill="#000080" mask="url(#path-2-inside-1_1_2)" />
<g id="Checkbox icon" filter="url(#filter1_iiii_1_2)">
<rect width="13" height="13" transform="translate(198.5 100)" fill="white" />
</g>
</g>
<g id="Instance_2">
<mask id="path-4-inside-2_1_2" fill="white">
<path d="M265 76H391V137H265V76Z" />
</mask>
<path d="M265 137.5H270.25V136.5H265V137.5ZM275.5 137.5H286V136.5H275.5V137.5ZM291.25 137.5H301.75V136.5H291.25V137.5ZM307 137.5H317.5V136.5H307V137.5ZM322.75 137.5H333.25V136.5H322.75V137.5ZM338.5 137.5H349V136.5H338.5V137.5ZM354.25 137.5H364.75V136.5H354.25V137.5ZM370 137.5H380.5V136.5H370V137.5ZM385.75 137.5H391V136.5H385.75V137.5ZM265 138H270.25V136H265V138ZM275.5 138H286V136H275.5V138ZM291.25 138H301.75V136H291.25V138ZM307 138H317.5V136H307V138ZM322.75 138H333.25V136H322.75V138ZM338.5 138H349V136H338.5V138ZM354.25 138H364.75V136H354.25V138ZM370 138H380.5V136H370V138ZM385.75 138H391V136H385.75V138Z" fill="#000080" mask="url(#path-4-inside-2_1_2)" />
<g id="Checkbox icon_2" filter="url(#filter2_iiii_1_2)">
<rect width="13" height="13" transform="translate(321.5 100)" fill="white" />
<g id="Check icon">
<path id="Union" d="M331.5 103H330.5V104H329.5V105H328.5V106H327.5V107H326.5V106H325.5V105H324.5V108H325.5V109H326.5V110H327.5V109H328.5V108H329.5V107H330.5V106H331.5V103Z" fill="black" />
</g>
</g>
</g>
</g>
<g id="Row_2">
<g id="Instance_3">
<mask id="path-7-inside-3_1_2" fill="white">
<path d="M145 137H265V198H145V137Z" />
</mask>
<path d="M265.5 198V192.917H264.5V198H265.5ZM265.5 187.833V177.667H264.5V187.833H265.5ZM265.5 172.583V162.417H264.5V172.583H265.5ZM265.5 157.333V147.167H264.5V157.333H265.5ZM265.5 142.083V137H264.5V142.083H265.5ZM266 198V192.917H264V198H266ZM266 187.833V177.667H264V187.833H266ZM266 172.583V162.417H264V172.583H266ZM266 157.333V147.167H264V157.333H266ZM266 142.083V137H264V142.083H266Z" fill="#000080" mask="url(#path-7-inside-3_1_2)" />
<g id="Checkbox icon_3" filter="url(#filter3_iiii_1_2)">
<rect width="13" height="13" transform="translate(198.5 161)" fill="#C0C0C0" />
</g>
</g>
<g id="Instance_4">
<g id="Checkbox icon_4" filter="url(#filter4_iiii_1_2)">
<rect width="13" height="13" transform="translate(321.5 161)" fill="#C0C0C0" />
<g id="Disabled Check icon">
<path id="Union_2" d="M332.5 165H331.5V166H330.5V167H329.5V168H328.5V169H327.5V168H326.5V167H325.5V170H326.5V171H327.5V172H328.5V171H329.5V170H330.5V169H331.5V168H332.5V165Z" fill="white" />
<path id="Union_3" d="M331.5 164H330.5V165H329.5V166H328.5V167H327.5V168H326.5V167H325.5V166H324.5V169H325.5V170H326.5V171H327.5V170H328.5V169H329.5V168H330.5V167H331.5V164Z" fill="#808080" />
</g>
</g>
</g>
</g>
</g>
<g id="Labels">
<g id="Label">
<path id="Text" d="M96.7841 111H93.9588V102.273H96.8736C97.7287 102.273 98.4631 102.447 99.0767 102.797C99.6903 103.143 100.161 103.642 100.487 104.293C100.817 104.94 100.982 105.717 100.982 106.624C100.982 107.533 100.815 108.314 100.483 108.967C100.153 109.621 99.6761 110.124 99.0511 110.476C98.4261 110.825 97.6705 111 96.7841 111ZM95.2756 109.849H96.7116C97.3764 109.849 97.929 109.724 98.3693 109.474C98.8097 109.222 99.1392 108.857 99.358 108.379C99.5767 107.899 99.6861 107.314 99.6861 106.624C99.6861 105.939 99.5767 105.358 99.358 104.881C99.142 104.403 98.8196 104.041 98.3906 103.794C97.9616 103.547 97.429 103.423 96.7926 103.423H95.2756V109.849ZM105.338 111.132C104.693 111.132 104.137 110.994 103.672 110.719C103.208 110.44 102.85 110.05 102.598 109.547C102.348 109.041 102.223 108.449 102.223 107.77C102.223 107.099 102.348 106.509 102.598 105.997C102.85 105.486 103.203 105.087 103.654 104.8C104.109 104.513 104.64 104.369 105.248 104.369C105.618 104.369 105.975 104.43 106.322 104.553C106.669 104.675 106.98 104.866 107.255 105.128C107.531 105.389 107.748 105.729 107.907 106.146C108.066 106.561 108.146 107.065 108.146 107.659V108.111H102.943V107.156H106.897C106.897 106.821 106.829 106.524 106.693 106.266C106.556 106.004 106.365 105.798 106.118 105.648C105.873 105.497 105.586 105.422 105.257 105.422C104.899 105.422 104.586 105.51 104.319 105.686C104.055 105.859 103.85 106.087 103.706 106.368C103.564 106.646 103.493 106.949 103.493 107.276V108.021C103.493 108.459 103.569 108.831 103.723 109.138C103.879 109.445 104.096 109.679 104.375 109.841C104.653 110 104.978 110.08 105.35 110.08C105.592 110.08 105.812 110.045 106.011 109.977C106.21 109.906 106.382 109.801 106.527 109.662C106.672 109.523 106.782 109.351 106.859 109.146L108.065 109.364C107.968 109.719 107.795 110.03 107.545 110.297C107.298 110.561 106.987 110.767 106.612 110.915C106.24 111.06 105.815 111.132 105.338 111.132ZM112.675 104.455V105.477H108.976V104.455H112.675ZM109.99 111V103.696C109.99 103.287 110.08 102.947 110.259 102.678C110.438 102.405 110.675 102.202 110.97 102.068C111.266 101.932 111.587 101.864 111.933 101.864C112.189 101.864 112.408 101.885 112.589 101.928C112.771 101.967 112.906 102.004 112.994 102.038L112.696 103.07C112.636 103.053 112.56 103.033 112.466 103.01C112.372 102.984 112.259 102.972 112.125 102.972C111.815 102.972 111.594 103.048 111.46 103.202C111.33 103.355 111.264 103.577 111.264 103.866V111H109.99ZM115.695 111.145C115.28 111.145 114.905 111.068 114.57 110.915C114.235 110.759 113.969 110.533 113.773 110.237C113.58 109.942 113.483 109.58 113.483 109.151C113.483 108.781 113.554 108.477 113.696 108.239C113.838 108 114.03 107.811 114.272 107.672C114.513 107.533 114.783 107.428 115.081 107.357C115.38 107.286 115.684 107.232 115.993 107.195C116.385 107.149 116.703 107.112 116.948 107.084C117.192 107.053 117.37 107.003 117.48 106.935C117.591 106.866 117.647 106.756 117.647 106.602V106.572C117.647 106.2 117.542 105.912 117.331 105.707C117.124 105.503 116.814 105.401 116.402 105.401C115.973 105.401 115.635 105.496 115.388 105.686C115.144 105.874 114.975 106.082 114.881 106.312L113.684 106.04C113.826 105.642 114.033 105.321 114.306 105.077C114.581 104.83 114.898 104.651 115.256 104.54C115.614 104.426 115.99 104.369 116.385 104.369C116.647 104.369 116.924 104.401 117.216 104.463C117.512 104.523 117.787 104.634 118.043 104.795C118.301 104.957 118.513 105.189 118.678 105.49C118.843 105.788 118.925 106.176 118.925 106.653V111H117.681V110.105H117.63C117.547 110.27 117.424 110.432 117.259 110.591C117.094 110.75 116.882 110.882 116.624 110.987C116.365 111.092 116.056 111.145 115.695 111.145ZM115.972 110.122C116.324 110.122 116.625 110.053 116.875 109.913C117.128 109.774 117.32 109.592 117.451 109.368C117.584 109.141 117.651 108.898 117.651 108.639V107.795C117.605 107.841 117.517 107.884 117.387 107.923C117.259 107.96 117.113 107.993 116.948 108.021C116.783 108.047 116.623 108.071 116.466 108.094C116.31 108.114 116.179 108.131 116.074 108.145C115.827 108.176 115.601 108.229 115.397 108.303C115.195 108.376 115.033 108.483 114.911 108.622C114.792 108.759 114.732 108.94 114.732 109.168C114.732 109.483 114.848 109.722 115.081 109.884C115.314 110.043 115.611 110.122 115.972 110.122ZM124.768 108.286V104.455H126.047V111H124.794V109.866H124.726C124.575 110.216 124.334 110.507 124.001 110.74C123.672 110.97 123.261 111.085 122.77 111.085C122.349 111.085 121.977 110.993 121.653 110.808C121.332 110.621 121.08 110.344 120.895 109.977C120.713 109.611 120.622 109.158 120.622 108.618V104.455H121.896V108.464C121.896 108.911 122.02 109.266 122.267 109.53C122.514 109.794 122.835 109.926 123.23 109.926C123.469 109.926 123.706 109.866 123.942 109.747C124.18 109.628 124.378 109.447 124.534 109.206C124.693 108.964 124.771 108.658 124.768 108.286ZM129.033 102.273V111H127.759V102.273H129.033ZM133.803 104.455V105.477H130.227V104.455H133.803ZM131.186 102.886H132.46V109.078C132.46 109.325 132.497 109.511 132.571 109.636C132.645 109.759 132.74 109.842 132.857 109.888C132.976 109.93 133.105 109.952 133.244 109.952C133.347 109.952 133.436 109.945 133.513 109.93C133.589 109.916 133.649 109.905 133.692 109.896L133.922 110.949C133.848 110.977 133.743 111.006 133.607 111.034C133.47 111.065 133.3 111.082 133.095 111.085C132.76 111.091 132.447 111.031 132.158 110.906C131.868 110.781 131.634 110.588 131.455 110.327C131.276 110.065 131.186 109.737 131.186 109.342V102.886Z" fill="#000080" />
</g>
<g id="Label_2">
<path id="Text_2" d="M88.7841 172H85.9588V163.273H88.8736C89.7287 163.273 90.4631 163.447 91.0767 163.797C91.6903 164.143 92.1605 164.642 92.4872 165.293C92.8168 165.94 92.9815 166.717 92.9815 167.624C92.9815 168.533 92.8153 169.314 92.483 169.967C92.1534 170.621 91.6761 171.124 91.0511 171.476C90.4261 171.825 89.6705 172 88.7841 172ZM87.2756 170.849H88.7116C89.3764 170.849 89.929 170.724 90.3693 170.474C90.8097 170.222 91.1392 169.857 91.358 169.379C91.5767 168.899 91.6861 168.314 91.6861 167.624C91.6861 166.939 91.5767 166.358 91.358 165.881C91.142 165.403 90.8196 165.041 90.3906 164.794C89.9616 164.547 89.429 164.423 88.7926 164.423H87.2756V170.849ZM94.5167 172V165.455H95.7908V172H94.5167ZM95.1602 164.445C94.9386 164.445 94.7482 164.371 94.5891 164.223C94.4329 164.072 94.3548 163.893 94.3548 163.686C94.3548 163.476 94.4329 163.297 94.5891 163.149C94.7482 162.999 94.9386 162.923 95.1602 162.923C95.3817 162.923 95.5707 162.999 95.7269 163.149C95.886 163.297 95.9656 163.476 95.9656 163.686C95.9656 163.893 95.886 164.072 95.7269 164.223C95.5707 164.371 95.3817 164.445 95.1602 164.445ZM102.41 167.053L101.255 167.257C101.207 167.109 101.13 166.969 101.025 166.835C100.923 166.702 100.783 166.592 100.607 166.507C100.431 166.422 100.211 166.379 99.9467 166.379C99.5859 166.379 99.2848 166.46 99.0433 166.622C98.8018 166.781 98.6811 166.987 98.6811 167.24C98.6811 167.459 98.7621 167.635 98.924 167.768C99.0859 167.902 99.3473 168.011 99.7081 168.097L100.748 168.335C101.35 168.474 101.799 168.689 102.094 168.979C102.39 169.268 102.538 169.645 102.538 170.108C102.538 170.5 102.424 170.849 102.197 171.156C101.972 171.46 101.658 171.699 101.255 171.872C100.854 172.045 100.39 172.132 99.8615 172.132C99.1286 172.132 98.5305 171.976 98.0675 171.663C97.6044 171.348 97.3203 170.901 97.2152 170.321L98.4467 170.134C98.5234 170.455 98.6811 170.697 98.9197 170.862C99.1584 171.024 99.4695 171.105 99.853 171.105C100.271 171.105 100.604 171.018 100.854 170.845C101.104 170.669 101.229 170.455 101.229 170.202C101.229 169.997 101.153 169.825 100.999 169.686C100.849 169.547 100.617 169.442 100.305 169.371L99.1967 169.128C98.5859 168.989 98.1342 168.767 97.8416 168.463C97.5518 168.159 97.407 167.774 97.407 167.308C97.407 166.922 97.5149 166.584 97.7308 166.294C97.9467 166.004 98.245 165.778 98.6257 165.616C99.0064 165.452 99.4425 165.369 99.9339 165.369C100.641 165.369 101.198 165.523 101.604 165.83C102.011 166.134 102.279 166.541 102.41 167.053ZM105.843 172.145C105.429 172.145 105.054 172.068 104.718 171.915C104.383 171.759 104.118 171.533 103.922 171.237C103.728 170.942 103.632 170.58 103.632 170.151C103.632 169.781 103.703 169.477 103.845 169.239C103.987 169 104.179 168.811 104.42 168.672C104.662 168.533 104.931 168.428 105.23 168.357C105.528 168.286 105.832 168.232 106.142 168.195C106.534 168.149 106.852 168.112 107.096 168.084C107.341 168.053 107.518 168.003 107.629 167.935C107.74 167.866 107.795 167.756 107.795 167.602V167.572C107.795 167.2 107.69 166.912 107.48 166.707C107.272 166.503 106.963 166.401 106.551 166.401C106.122 166.401 105.784 166.496 105.537 166.686C105.292 166.874 105.123 167.082 105.029 167.312L103.832 167.04C103.974 166.642 104.181 166.321 104.454 166.077C104.73 165.83 105.047 165.651 105.404 165.54C105.762 165.426 106.139 165.369 106.534 165.369C106.795 165.369 107.072 165.401 107.365 165.463C107.66 165.523 107.936 165.634 108.191 165.795C108.45 165.957 108.662 166.189 108.826 166.49C108.991 166.788 109.074 167.176 109.074 167.653V172H107.829V171.105H107.778C107.696 171.27 107.572 171.432 107.407 171.591C107.243 171.75 107.031 171.882 106.772 171.987C106.514 172.092 106.204 172.145 105.843 172.145ZM106.12 171.122C106.473 171.122 106.774 171.053 107.024 170.913C107.277 170.774 107.468 170.592 107.599 170.368C107.733 170.141 107.799 169.898 107.799 169.639V168.795C107.754 168.841 107.666 168.884 107.535 168.923C107.407 168.96 107.261 168.993 107.096 169.021C106.931 169.047 106.771 169.071 106.615 169.094C106.458 169.114 106.328 169.131 106.223 169.145C105.975 169.176 105.75 169.229 105.545 169.303C105.343 169.376 105.181 169.483 105.059 169.622C104.94 169.759 104.88 169.94 104.88 170.168C104.88 170.483 104.997 170.722 105.23 170.884C105.463 171.043 105.76 171.122 106.12 171.122ZM110.873 172V163.273H112.147V166.516H112.224C112.298 166.379 112.404 166.222 112.543 166.043C112.683 165.864 112.876 165.707 113.123 165.574C113.37 165.438 113.697 165.369 114.103 165.369C114.631 165.369 115.103 165.503 115.518 165.77C115.933 166.037 116.258 166.422 116.494 166.925C116.732 167.428 116.852 168.033 116.852 168.74C116.852 169.447 116.734 170.054 116.498 170.56C116.262 171.062 115.938 171.45 115.526 171.723C115.114 171.993 114.644 172.128 114.116 172.128C113.718 172.128 113.393 172.061 113.14 171.928C112.89 171.794 112.694 171.638 112.552 171.459C112.41 171.28 112.3 171.121 112.224 170.982H112.117V172H110.873ZM112.121 168.727C112.121 169.187 112.188 169.591 112.322 169.938C112.455 170.284 112.648 170.555 112.901 170.751C113.154 170.945 113.464 171.041 113.83 171.041C114.211 171.041 114.529 170.94 114.785 170.739C115.04 170.534 115.234 170.257 115.364 169.908C115.498 169.558 115.565 169.165 115.565 168.727C115.565 168.295 115.499 167.908 115.369 167.564C115.241 167.22 115.048 166.949 114.789 166.75C114.533 166.551 114.214 166.452 113.83 166.452C113.461 166.452 113.148 166.547 112.893 166.737C112.64 166.928 112.448 167.193 112.317 167.534C112.187 167.875 112.121 168.273 112.121 168.727ZM119.556 163.273V172H118.282V163.273H119.556ZM124.092 172.132C123.447 172.132 122.891 171.994 122.425 171.719C121.962 171.44 121.604 171.05 121.352 170.547C121.102 170.041 120.977 169.449 120.977 168.77C120.977 168.099 121.102 167.509 121.352 166.997C121.604 166.486 121.957 166.087 122.408 165.8C122.863 165.513 123.394 165.369 124.002 165.369C124.371 165.369 124.729 165.43 125.076 165.553C125.423 165.675 125.734 165.866 126.009 166.128C126.285 166.389 126.502 166.729 126.661 167.146C126.82 167.561 126.9 168.065 126.9 168.659V169.111H121.697V168.156H125.651C125.651 167.821 125.583 167.524 125.447 167.266C125.31 167.004 125.119 166.798 124.871 166.648C124.627 166.497 124.34 166.422 124.011 166.422C123.653 166.422 123.34 166.51 123.073 166.686C122.809 166.859 122.604 167.087 122.46 167.368C122.317 167.646 122.246 167.949 122.246 168.276V169.021C122.246 169.459 122.323 169.831 122.477 170.138C122.633 170.445 122.85 170.679 123.129 170.841C123.407 171 123.732 171.08 124.104 171.08C124.346 171.08 124.566 171.045 124.765 170.977C124.964 170.906 125.136 170.801 125.281 170.662C125.425 170.523 125.536 170.351 125.613 170.146L126.819 170.364C126.722 170.719 126.549 171.03 126.299 171.297C126.052 171.561 125.741 171.767 125.366 171.915C124.994 172.06 124.569 172.132 124.092 172.132ZM130.764 172.128C130.235 172.128 129.764 171.993 129.349 171.723C128.937 171.45 128.613 171.062 128.377 170.56C128.145 170.054 128.028 169.447 128.028 168.74C128.028 168.033 128.146 167.428 128.382 166.925C128.62 166.422 128.947 166.037 129.362 165.77C129.777 165.503 130.247 165.369 130.772 165.369C131.179 165.369 131.505 165.438 131.752 165.574C132.002 165.707 132.196 165.864 132.332 166.043C132.471 166.222 132.579 166.379 132.656 166.516H132.733V163.273H134.007V172H132.762V170.982H132.656C132.579 171.121 132.468 171.28 132.324 171.459C132.181 171.638 131.985 171.794 131.735 171.928C131.485 172.061 131.162 172.128 130.764 172.128ZM131.045 171.041C131.412 171.041 131.721 170.945 131.974 170.751C132.23 170.555 132.423 170.284 132.554 169.938C132.687 169.591 132.754 169.187 132.754 168.727C132.754 168.273 132.689 167.875 132.558 167.534C132.427 167.193 132.235 166.928 131.983 166.737C131.73 166.547 131.417 166.452 131.045 166.452C130.662 166.452 130.342 166.551 130.086 166.75C129.831 166.949 129.637 167.22 129.507 167.564C129.379 167.908 129.315 168.295 129.315 168.727C129.315 169.165 129.38 169.558 129.511 169.908C129.642 170.257 129.835 170.534 130.091 170.739C130.349 170.94 130.667 171.041 131.045 171.041Z" fill="#000080" />
</g>
<g id="Label_3">
<path id="Text_3" d="M174.719 56.5653C174.673 56.1619 174.486 55.8494 174.156 55.6278C173.827 55.4034 173.412 55.2912 172.912 55.2912C172.554 55.2912 172.244 55.348 171.983 55.4616C171.722 55.5724 171.518 55.7259 171.374 55.9219C171.232 56.1151 171.161 56.3352 171.161 56.5824C171.161 56.7898 171.209 56.9687 171.305 57.1193C171.405 57.2699 171.534 57.3963 171.693 57.4986C171.855 57.598 172.028 57.6818 172.213 57.75C172.398 57.8153 172.575 57.8693 172.746 57.9119L173.598 58.1335C173.876 58.2017 174.162 58.294 174.455 58.4105C174.747 58.527 175.018 58.6804 175.268 58.8707C175.518 59.0611 175.72 59.2969 175.874 59.5781C176.03 59.8594 176.108 60.196 176.108 60.5881C176.108 61.0824 175.98 61.5213 175.724 61.9048C175.472 62.2884 175.104 62.5909 174.621 62.8125C174.141 63.0341 173.56 63.1449 172.878 63.1449C172.224 63.1449 171.659 63.0412 171.182 62.8338C170.705 62.6264 170.331 62.3324 170.061 61.9517C169.791 61.5682 169.642 61.1136 169.614 60.5881H170.935C170.96 60.9034 171.063 61.1662 171.241 61.3764C171.423 61.5838 171.655 61.7386 171.936 61.8409C172.22 61.9403 172.531 61.9901 172.869 61.9901C173.241 61.9901 173.572 61.9318 173.862 61.8153C174.155 61.696 174.385 61.5312 174.553 61.321C174.72 61.108 174.804 60.8594 174.804 60.5753C174.804 60.3168 174.73 60.1051 174.582 59.9403C174.438 59.7756 174.24 59.6392 173.99 59.5312C173.743 59.4233 173.463 59.3281 173.151 59.2457L172.119 58.9645C171.42 58.7741 170.866 58.4943 170.457 58.125C170.051 57.7557 169.848 57.267 169.848 56.6591C169.848 56.1562 169.984 55.7173 170.257 55.3423C170.53 54.9673 170.899 54.6761 171.365 54.4688C171.831 54.2585 172.357 54.1534 172.942 54.1534C173.533 54.1534 174.054 54.2571 174.506 54.4645C174.96 54.6719 175.318 54.9574 175.58 55.321C175.841 55.6818 175.977 56.0966 175.989 56.5653H174.719ZM180.4 63.1321C179.755 63.1321 179.2 62.9943 178.734 62.7188C178.271 62.4403 177.913 62.0497 177.66 61.5469C177.41 61.0412 177.285 60.4489 177.285 59.7699C177.285 59.0994 177.41 58.5085 177.66 57.9972C177.913 57.4858 178.265 57.0866 178.717 56.7997C179.172 56.5128 179.703 56.3693 180.311 56.3693C180.68 56.3693 181.038 56.4304 181.385 56.5526C181.731 56.6747 182.042 56.8665 182.318 57.1278C182.593 57.3892 182.811 57.7287 182.97 58.1463C183.129 58.5611 183.208 59.0653 183.208 59.6591V60.1108H178.005V59.1562H181.96C181.96 58.821 181.892 58.5241 181.755 58.2656C181.619 58.0043 181.427 57.7983 181.18 57.6477C180.936 57.4972 180.649 57.4219 180.319 57.4219C179.961 57.4219 179.649 57.5099 179.382 57.6861C179.118 57.8594 178.913 58.0866 178.768 58.3679C178.626 58.6463 178.555 58.9489 178.555 59.2756V60.0213C178.555 60.4588 178.632 60.831 178.785 61.1378C178.941 61.4446 179.159 61.679 179.437 61.8409C179.716 62 180.041 62.0795 180.413 62.0795C180.654 62.0795 180.875 62.0455 181.074 61.9773C181.272 61.9062 181.444 61.8011 181.589 61.6619C181.734 61.5227 181.845 61.3509 181.922 61.1463L183.127 61.3636C183.031 61.7187 182.858 62.0298 182.608 62.2969C182.36 62.5611 182.049 62.767 181.674 62.9148C181.302 63.0597 180.877 63.1321 180.4 63.1321ZM185.896 54.2727V63H184.622V54.2727H185.896ZM190.431 63.1321C189.787 63.1321 189.231 62.9943 188.765 62.7188C188.302 62.4403 187.944 62.0497 187.691 61.5469C187.441 61.0412 187.316 60.4489 187.316 59.7699C187.316 59.0994 187.441 58.5085 187.691 57.9972C187.944 57.4858 188.297 57.0866 188.748 56.7997C189.203 56.5128 189.734 56.3693 190.342 56.3693C190.711 56.3693 191.069 56.4304 191.416 56.5526C191.762 56.6747 192.074 56.8665 192.349 57.1278C192.625 57.3892 192.842 57.7287 193.001 58.1463C193.16 58.5611 193.24 59.0653 193.24 59.6591V60.1108H188.037V59.1562H191.991C191.991 58.821 191.923 58.5241 191.787 58.2656C191.65 58.0043 191.458 57.7983 191.211 57.6477C190.967 57.4972 190.68 57.4219 190.35 57.4219C189.993 57.4219 189.68 57.5099 189.413 57.6861C189.149 57.8594 188.944 58.0866 188.799 58.3679C188.657 58.6463 188.586 58.9489 188.586 59.2756V60.0213C188.586 60.4588 188.663 60.831 188.816 61.1378C188.973 61.4446 189.19 61.679 189.468 61.8409C189.747 62 190.072 62.0795 190.444 62.0795C190.686 62.0795 190.906 62.0455 191.105 61.9773C191.304 61.9062 191.475 61.8011 191.62 61.6619C191.765 61.5227 191.876 61.3509 191.953 61.1463L193.159 61.3636C193.062 61.7187 192.889 62.0298 192.639 62.2969C192.392 62.5611 192.081 62.767 191.706 62.9148C191.333 63.0597 190.909 63.1321 190.431 63.1321ZM197.411 63.1321C196.777 63.1321 196.232 62.9886 195.774 62.7017C195.32 62.4119 194.97 62.0128 194.726 61.5043C194.482 60.9957 194.359 60.4134 194.359 59.7571C194.359 59.0923 194.484 58.5057 194.734 57.9972C194.984 57.4858 195.337 57.0866 195.791 56.7997C196.246 56.5128 196.781 56.3693 197.398 56.3693C197.895 56.3693 198.338 56.4616 198.727 56.6463C199.116 56.8281 199.43 57.0838 199.669 57.4134C199.911 57.7429 200.054 58.1278 200.099 58.5682H198.859C198.791 58.2614 198.635 57.9972 198.391 57.7756C198.149 57.554 197.825 57.4432 197.419 57.4432C197.064 57.4432 196.753 57.5369 196.486 57.7244C196.222 57.9091 196.016 58.1733 195.868 58.517C195.72 58.858 195.646 59.2614 195.646 59.7273C195.646 60.2045 195.719 60.6165 195.864 60.9631C196.009 61.3097 196.213 61.5781 196.477 61.7685C196.744 61.9588 197.058 62.054 197.419 62.054C197.661 62.054 197.879 62.0099 198.075 61.9219C198.274 61.831 198.44 61.7017 198.574 61.5341C198.71 61.3665 198.805 61.1648 198.859 60.929H200.099C200.054 61.3523 199.916 61.7301 199.686 62.0625C199.456 62.3949 199.148 62.6562 198.761 62.8466C198.378 63.0369 197.928 63.1321 197.411 63.1321ZM204.517 56.4545V57.4773H200.942V56.4545H204.517ZM201.901 54.8864H203.175V61.0781C203.175 61.3253 203.212 61.5114 203.286 61.6364C203.36 61.7585 203.455 61.8423 203.571 61.8878C203.691 61.9304 203.82 61.9517 203.959 61.9517C204.061 61.9517 204.151 61.9446 204.228 61.9304C204.304 61.9162 204.364 61.9048 204.407 61.8963L204.637 62.9489C204.563 62.9773 204.458 63.0057 204.321 63.0341C204.185 63.0653 204.015 63.0824 203.81 63.0852C203.475 63.0909 203.162 63.0312 202.873 62.9062C202.583 62.7812 202.348 62.5881 202.169 62.3267C201.99 62.0653 201.901 61.7372 201.901 61.3423V54.8864ZM208.678 63.1321C208.033 63.1321 207.477 62.9943 207.011 62.7188C206.548 62.4403 206.19 62.0497 205.938 61.5469C205.688 61.0412 205.562 60.4489 205.562 59.7699C205.562 59.0994 205.688 58.5085 205.938 57.9972C206.19 57.4858 206.543 57.0866 206.994 56.7997C207.449 56.5128 207.98 56.3693 208.588 56.3693C208.957 56.3693 209.315 56.4304 209.662 56.5526C210.009 56.6747 210.32 56.8665 210.595 57.1278C210.871 57.3892 211.088 57.7287 211.247 58.1463C211.406 58.5611 211.486 59.0653 211.486 59.6591V60.1108H206.283V59.1562H210.237C210.237 58.821 210.169 58.5241 210.033 58.2656C209.896 58.0043 209.705 57.7983 209.457 57.6477C209.213 57.4972 208.926 57.4219 208.597 57.4219C208.239 57.4219 207.926 57.5099 207.659 57.6861C207.395 57.8594 207.19 58.0866 207.045 58.3679C206.903 58.6463 206.832 58.9489 206.832 59.2756V60.0213C206.832 60.4588 206.909 60.831 207.062 61.1378C207.219 61.4446 207.436 61.679 207.714 61.8409C207.993 62 208.318 62.0795 208.69 62.0795C208.932 62.0795 209.152 62.0455 209.351 61.9773C209.55 61.9062 209.722 61.8011 209.866 61.6619C210.011 61.5227 210.122 61.3509 210.199 61.1463L211.405 61.3636C211.308 61.7187 211.135 62.0298 210.885 62.2969C210.638 62.5611 210.327 62.767 209.952 62.9148C209.58 63.0597 209.155 63.1321 208.678 63.1321ZM215.35 63.1278C214.821 63.1278 214.35 62.9929 213.935 62.723C213.523 62.4503 213.199 62.0625 212.963 61.5597C212.73 61.054 212.614 60.4474 212.614 59.7401C212.614 59.0327 212.732 58.4276 212.968 57.9247C213.206 57.4219 213.533 57.0369 213.948 56.7699C214.363 56.5028 214.833 56.3693 215.358 56.3693C215.765 56.3693 216.091 56.4375 216.338 56.5739C216.588 56.7074 216.782 56.8636 216.918 57.0426C217.057 57.2216 217.165 57.3793 217.242 57.5156H217.319V54.2727H218.593V63H217.348V61.9815H217.242C217.165 62.1207 217.054 62.2798 216.909 62.4588C216.767 62.6378 216.571 62.794 216.321 62.9276C216.071 63.0611 215.748 63.1278 215.35 63.1278ZM215.631 62.0412C215.998 62.0412 216.307 61.9446 216.56 61.7514C216.816 61.5554 217.009 61.2841 217.14 60.9375C217.273 60.5909 217.34 60.1875 217.34 59.7273C217.34 59.2727 217.275 58.875 217.144 58.5341C217.013 58.1932 216.821 57.9276 216.569 57.7372C216.316 57.5469 216.003 57.4517 215.631 57.4517C215.248 57.4517 214.928 57.5511 214.672 57.75C214.417 57.9489 214.223 58.2202 214.093 58.5639C213.965 58.9077 213.901 59.2955 213.901 59.7273C213.901 60.1648 213.966 60.5582 214.097 60.9077C214.228 61.2571 214.421 61.5341 214.676 61.7386C214.935 61.9403 215.253 62.0412 215.631 62.0412ZM221.251 63.081C221.018 63.081 220.817 62.9986 220.65 62.8338C220.482 62.6662 220.398 62.4645 220.398 62.2287C220.398 61.9957 220.482 61.7969 220.65 61.6321C220.817 61.4645 221.018 61.3807 221.251 61.3807C221.484 61.3807 221.684 61.4645 221.852 61.6321C222.019 61.7969 222.103 61.9957 222.103 62.2287C222.103 62.3849 222.063 62.5284 221.984 62.6591C221.907 62.7869 221.805 62.8892 221.677 62.9659C221.549 63.0426 221.407 63.081 221.251 63.081ZM221.251 58.3168C221.018 58.3168 220.817 58.233 220.65 58.0653C220.482 57.8977 220.398 57.6974 220.398 57.4645C220.398 57.2315 220.482 57.0327 220.65 56.8679C220.817 56.7003 221.018 56.6165 221.251 56.6165C221.484 56.6165 221.684 56.7003 221.852 56.8679C222.019 57.0327 222.103 57.2315 222.103 57.4645C222.103 57.6207 222.063 57.7642 221.984 57.8949C221.907 58.0227 221.805 58.125 221.677 58.2017C221.549 58.2784 221.407 58.3168 221.251 58.3168ZM228.26 59.1136V63H226.985V56.4545H228.208V57.5199H228.289C228.44 57.1733 228.676 56.8949 228.997 56.6847C229.321 56.4744 229.728 56.3693 230.22 56.3693C230.666 56.3693 231.056 56.4631 231.392 56.6506C231.727 56.8352 231.987 57.1108 232.172 57.4773C232.356 57.8437 232.449 58.2969 232.449 58.8366V63H231.174V58.9901C231.174 58.5156 231.051 58.1449 230.804 57.8778C230.556 57.608 230.217 57.473 229.785 57.473C229.49 57.473 229.227 57.5369 228.997 57.6648C228.77 57.7926 228.589 57.9801 228.456 58.2273C228.325 58.4716 228.26 58.767 228.26 59.1136ZM236.914 63.1321C236.301 63.1321 235.765 62.9915 235.308 62.7102C234.85 62.429 234.495 62.0355 234.243 61.5298C233.99 61.0241 233.863 60.4332 233.863 59.7571C233.863 59.0781 233.99 58.4844 234.243 57.9759C234.495 57.4673 234.85 57.0724 235.308 56.7912C235.765 56.5099 236.301 56.3693 236.914 56.3693C237.528 56.3693 238.064 56.5099 238.521 56.7912C238.978 57.0724 239.333 57.4673 239.586 57.9759C239.839 58.4844 239.966 59.0781 239.966 59.7571C239.966 60.4332 239.839 61.0241 239.586 61.5298C239.333 62.0355 238.978 62.429 238.521 62.7102C238.064 62.9915 237.528 63.1321 236.914 63.1321ZM236.919 62.0625C237.316 62.0625 237.646 61.9574 237.907 61.7472C238.169 61.5369 238.362 61.2571 238.487 60.9077C238.615 60.5582 238.679 60.1733 238.679 59.7528C238.679 59.3352 238.615 58.9517 238.487 58.6023C238.362 58.25 238.169 57.9673 237.907 57.7543C237.646 57.5412 237.316 57.4347 236.919 57.4347C236.518 57.4347 236.186 57.5412 235.922 57.7543C235.66 57.9673 235.466 58.25 235.338 58.6023C235.213 58.9517 235.15 59.3352 235.15 59.7528C235.15 60.1733 235.213 60.5582 235.338 60.9077C235.466 61.2571 235.66 61.5369 235.922 61.7472C236.186 61.9574 236.518 62.0625 236.919 62.0625Z" fill="#000080" />
</g>
<g id="Label_4">
<path id="Text_4" d="M294.719 56.5653C294.673 56.1619 294.486 55.8494 294.156 55.6278C293.827 55.4034 293.412 55.2912 292.912 55.2912C292.554 55.2912 292.244 55.348 291.983 55.4616C291.722 55.5724 291.518 55.7259 291.374 55.9219C291.232 56.1151 291.161 56.3352 291.161 56.5824C291.161 56.7898 291.209 56.9687 291.305 57.1193C291.405 57.2699 291.534 57.3963 291.693 57.4986C291.855 57.598 292.028 57.6818 292.213 57.75C292.398 57.8153 292.575 57.8693 292.746 57.9119L293.598 58.1335C293.876 58.2017 294.162 58.294 294.455 58.4105C294.747 58.527 295.018 58.6804 295.268 58.8707C295.518 59.0611 295.72 59.2969 295.874 59.5781C296.03 59.8594 296.108 60.196 296.108 60.5881C296.108 61.0824 295.98 61.5213 295.724 61.9048C295.472 62.2884 295.104 62.5909 294.621 62.8125C294.141 63.0341 293.56 63.1449 292.878 63.1449C292.224 63.1449 291.659 63.0412 291.182 62.8338C290.705 62.6264 290.331 62.3324 290.061 61.9517C289.791 61.5682 289.642 61.1136 289.614 60.5881H290.935C290.96 60.9034 291.063 61.1662 291.241 61.3764C291.423 61.5838 291.655 61.7386 291.936 61.8409C292.22 61.9403 292.531 61.9901 292.869 61.9901C293.241 61.9901 293.572 61.9318 293.862 61.8153C294.155 61.696 294.385 61.5312 294.553 61.321C294.72 61.108 294.804 60.8594 294.804 60.5753C294.804 60.3168 294.73 60.1051 294.582 59.9403C294.438 59.7756 294.24 59.6392 293.99 59.5312C293.743 59.4233 293.463 59.3281 293.151 59.2457L292.119 58.9645C291.42 58.7741 290.866 58.4943 290.457 58.125C290.051 57.7557 289.848 57.267 289.848 56.6591C289.848 56.1562 289.984 55.7173 290.257 55.3423C290.53 54.9673 290.899 54.6761 291.365 54.4688C291.831 54.2585 292.357 54.1534 292.942 54.1534C293.533 54.1534 294.054 54.2571 294.506 54.4645C294.96 54.6719 295.318 54.9574 295.58 55.321C295.841 55.6818 295.977 56.0966 295.989 56.5653H294.719ZM300.4 63.1321C299.755 63.1321 299.2 62.9943 298.734 62.7188C298.271 62.4403 297.913 62.0497 297.66 61.5469C297.41 61.0412 297.285 60.4489 297.285 59.7699C297.285 59.0994 297.41 58.5085 297.66 57.9972C297.913 57.4858 298.265 57.0866 298.717 56.7997C299.172 56.5128 299.703 56.3693 300.311 56.3693C300.68 56.3693 301.038 56.4304 301.385 56.5526C301.731 56.6747 302.042 56.8665 302.318 57.1278C302.593 57.3892 302.811 57.7287 302.97 58.1463C303.129 58.5611 303.208 59.0653 303.208 59.6591V60.1108H298.005V59.1562H301.96C301.96 58.821 301.892 58.5241 301.755 58.2656C301.619 58.0043 301.427 57.7983 301.18 57.6477C300.936 57.4972 300.649 57.4219 300.319 57.4219C299.961 57.4219 299.649 57.5099 299.382 57.6861C299.118 57.8594 298.913 58.0866 298.768 58.3679C298.626 58.6463 298.555 58.9489 298.555 59.2756V60.0213C298.555 60.4588 298.632 60.831 298.785 61.1378C298.941 61.4446 299.159 61.679 299.437 61.8409C299.716 62 300.041 62.0795 300.413 62.0795C300.654 62.0795 300.875 62.0455 301.074 61.9773C301.272 61.9062 301.444 61.8011 301.589 61.6619C301.734 61.5227 301.845 61.3509 301.922 61.1463L303.127 61.3636C303.031 61.7187 302.858 62.0298 302.608 62.2969C302.36 62.5611 302.049 62.767 301.674 62.9148C301.302 63.0597 300.877 63.1321 300.4 63.1321ZM305.896 54.2727V63H304.622V54.2727H305.896ZM310.431 63.1321C309.787 63.1321 309.231 62.9943 308.765 62.7188C308.302 62.4403 307.944 62.0497 307.691 61.5469C307.441 61.0412 307.316 60.4489 307.316 59.7699C307.316 59.0994 307.441 58.5085 307.691 57.9972C307.944 57.4858 308.297 57.0866 308.748 56.7997C309.203 56.5128 309.734 56.3693 310.342 56.3693C310.711 56.3693 311.069 56.4304 311.416 56.5526C311.762 56.6747 312.074 56.8665 312.349 57.1278C312.625 57.3892 312.842 57.7287 313.001 58.1463C313.16 58.5611 313.24 59.0653 313.24 59.6591V60.1108H308.037V59.1562H311.991C311.991 58.821 311.923 58.5241 311.787 58.2656C311.65 58.0043 311.458 57.7983 311.211 57.6477C310.967 57.4972 310.68 57.4219 310.35 57.4219C309.993 57.4219 309.68 57.5099 309.413 57.6861C309.149 57.8594 308.944 58.0866 308.799 58.3679C308.657 58.6463 308.586 58.9489 308.586 59.2756V60.0213C308.586 60.4588 308.663 60.831 308.816 61.1378C308.973 61.4446 309.19 61.679 309.468 61.8409C309.747 62 310.072 62.0795 310.444 62.0795C310.686 62.0795 310.906 62.0455 311.105 61.9773C311.304 61.9062 311.475 61.8011 311.62 61.6619C311.765 61.5227 311.876 61.3509 311.953 61.1463L313.159 61.3636C313.062 61.7187 312.889 62.0298 312.639 62.2969C312.392 62.5611 312.081 62.767 311.706 62.9148C311.333 63.0597 310.909 63.1321 310.431 63.1321ZM317.411 63.1321C316.777 63.1321 316.232 62.9886 315.774 62.7017C315.32 62.4119 314.97 62.0128 314.726 61.5043C314.482 60.9957 314.359 60.4134 314.359 59.7571C314.359 59.0923 314.484 58.5057 314.734 57.9972C314.984 57.4858 315.337 57.0866 315.791 56.7997C316.246 56.5128 316.781 56.3693 317.398 56.3693C317.895 56.3693 318.338 56.4616 318.727 56.6463C319.116 56.8281 319.43 57.0838 319.669 57.4134C319.911 57.7429 320.054 58.1278 320.099 58.5682H318.859C318.791 58.2614 318.635 57.9972 318.391 57.7756C318.149 57.554 317.825 57.4432 317.419 57.4432C317.064 57.4432 316.753 57.5369 316.486 57.7244C316.222 57.9091 316.016 58.1733 315.868 58.517C315.72 58.858 315.646 59.2614 315.646 59.7273C315.646 60.2045 315.719 60.6165 315.864 60.9631C316.009 61.3097 316.213 61.5781 316.477 61.7685C316.744 61.9588 317.058 62.054 317.419 62.054C317.661 62.054 317.879 62.0099 318.075 61.9219C318.274 61.831 318.44 61.7017 318.574 61.5341C318.71 61.3665 318.805 61.1648 318.859 60.929H320.099C320.054 61.3523 319.916 61.7301 319.686 62.0625C319.456 62.3949 319.148 62.6562 318.761 62.8466C318.378 63.0369 317.928 63.1321 317.411 63.1321ZM324.517 56.4545V57.4773H320.942V56.4545H324.517ZM321.901 54.8864H323.175V61.0781C323.175 61.3253 323.212 61.5114 323.286 61.6364C323.36 61.7585 323.455 61.8423 323.571 61.8878C323.691 61.9304 323.82 61.9517 323.959 61.9517C324.061 61.9517 324.151 61.9446 324.228 61.9304C324.304 61.9162 324.364 61.9048 324.407 61.8963L324.637 62.9489C324.563 62.9773 324.458 63.0057 324.321 63.0341C324.185 63.0653 324.015 63.0824 323.81 63.0852C323.475 63.0909 323.162 63.0312 322.873 62.9062C322.583 62.7812 322.348 62.5881 322.169 62.3267C321.99 62.0653 321.901 61.7372 321.901 61.3423V54.8864ZM328.678 63.1321C328.033 63.1321 327.477 62.9943 327.011 62.7188C326.548 62.4403 326.19 62.0497 325.938 61.5469C325.688 61.0412 325.562 60.4489 325.562 59.7699C325.562 59.0994 325.688 58.5085 325.938 57.9972C326.19 57.4858 326.543 57.0866 326.994 56.7997C327.449 56.5128 327.98 56.3693 328.588 56.3693C328.957 56.3693 329.315 56.4304 329.662 56.5526C330.009 56.6747 330.32 56.8665 330.595 57.1278C330.871 57.3892 331.088 57.7287 331.247 58.1463C331.406 58.5611 331.486 59.0653 331.486 59.6591V60.1108H326.283V59.1562H330.237C330.237 58.821 330.169 58.5241 330.033 58.2656C329.896 58.0043 329.705 57.7983 329.457 57.6477C329.213 57.4972 328.926 57.4219 328.597 57.4219C328.239 57.4219 327.926 57.5099 327.659 57.6861C327.395 57.8594 327.19 58.0866 327.045 58.3679C326.903 58.6463 326.832 58.9489 326.832 59.2756V60.0213C326.832 60.4588 326.909 60.831 327.062 61.1378C327.219 61.4446 327.436 61.679 327.714 61.8409C327.993 62 328.318 62.0795 328.69 62.0795C328.932 62.0795 329.152 62.0455 329.351 61.9773C329.55 61.9062 329.722 61.8011 329.866 61.6619C330.011 61.5227 330.122 61.3509 330.199 61.1463L331.405 61.3636C331.308 61.7187 331.135 62.0298 330.885 62.2969C330.638 62.5611 330.327 62.767 329.952 62.9148C329.58 63.0597 329.155 63.1321 328.678 63.1321ZM335.35 63.1278C334.821 63.1278 334.35 62.9929 333.935 62.723C333.523 62.4503 333.199 62.0625 332.963 61.5597C332.73 61.054 332.614 60.4474 332.614 59.7401C332.614 59.0327 332.732 58.4276 332.968 57.9247C333.206 57.4219 333.533 57.0369 333.948 56.7699C334.363 56.5028 334.833 56.3693 335.358 56.3693C335.765 56.3693 336.091 56.4375 336.338 56.5739C336.588 56.7074 336.782 56.8636 336.918 57.0426C337.057 57.2216 337.165 57.3793 337.242 57.5156H337.319V54.2727H338.593V63H337.348V61.9815H337.242C337.165 62.1207 337.054 62.2798 336.909 62.4588C336.767 62.6378 336.571 62.794 336.321 62.9276C336.071 63.0611 335.748 63.1278 335.35 63.1278ZM335.631 62.0412C335.998 62.0412 336.307 61.9446 336.56 61.7514C336.816 61.5554 337.009 61.2841 337.14 60.9375C337.273 60.5909 337.34 60.1875 337.34 59.7273C337.34 59.2727 337.275 58.875 337.144 58.5341C337.013 58.1932 336.821 57.9276 336.569 57.7372C336.316 57.5469 336.003 57.4517 335.631 57.4517C335.248 57.4517 334.928 57.5511 334.672 57.75C334.417 57.9489 334.223 58.2202 334.093 58.5639C333.965 58.9077 333.901 59.2955 333.901 59.7273C333.901 60.1648 333.966 60.5582 334.097 60.9077C334.228 61.2571 334.421 61.5341 334.676 61.7386C334.935 61.9403 335.253 62.0412 335.631 62.0412ZM341.251 63.081C341.018 63.081 340.817 62.9986 340.65 62.8338C340.482 62.6662 340.398 62.4645 340.398 62.2287C340.398 61.9957 340.482 61.7969 340.65 61.6321C340.817 61.4645 341.018 61.3807 341.251 61.3807C341.484 61.3807 341.684 61.4645 341.852 61.6321C342.019 61.7969 342.103 61.9957 342.103 62.2287C342.103 62.3849 342.063 62.5284 341.984 62.6591C341.907 62.7869 341.805 62.8892 341.677 62.9659C341.549 63.0426 341.407 63.081 341.251 63.081ZM341.251 58.3168C341.018 58.3168 340.817 58.233 340.65 58.0653C340.482 57.8977 340.398 57.6974 340.398 57.4645C340.398 57.2315 340.482 57.0327 340.65 56.8679C340.817 56.7003 341.018 56.6165 341.251 56.6165C341.484 56.6165 341.684 56.7003 341.852 56.8679C342.019 57.0327 342.103 57.2315 342.103 57.4645C342.103 57.6207 342.063 57.7642 341.984 57.8949C341.907 58.0227 341.805 58.125 341.677 58.2017C341.549 58.2784 341.407 58.3168 341.251 58.3168ZM347.791 65.4545C347.6 65.4545 347.427 65.4389 347.271 65.4077C347.115 65.3793 346.998 65.348 346.922 65.3139L347.228 64.2699C347.461 64.3324 347.669 64.3594 347.85 64.3509C348.032 64.3423 348.193 64.2741 348.332 64.1463C348.474 64.0185 348.599 63.8097 348.707 63.5199L348.865 63.0852L346.47 56.4545H347.833L349.491 61.5341H349.559L351.217 56.4545H352.585L349.887 63.8736C349.762 64.2145 349.603 64.5028 349.41 64.7386C349.217 64.9773 348.987 65.1563 348.72 65.2756C348.453 65.3949 348.143 65.4545 347.791 65.4545ZM356.381 63.1321C355.736 63.1321 355.18 62.9943 354.714 62.7188C354.251 62.4403 353.893 62.0497 353.641 61.5469C353.391 61.0412 353.266 60.4489 353.266 59.7699C353.266 59.0994 353.391 58.5085 353.641 57.9972C353.893 57.4858 354.246 57.0866 354.697 56.7997C355.152 56.5128 355.683 56.3693 356.291 56.3693C356.661 56.3693 357.018 56.4304 357.365 56.5526C357.712 56.6747 358.023 56.8665 358.298 57.1278C358.574 57.3892 358.791 57.7287 358.95 58.1463C359.109 58.5611 359.189 59.0653 359.189 59.6591V60.1108H353.986V59.1562H357.94C357.94 58.821 357.872 58.5241 357.736 58.2656C357.599 58.0043 357.408 57.7983 357.161 57.6477C356.916 57.4972 356.629 57.4219 356.3 57.4219C355.942 57.4219 355.629 57.5099 355.362 57.6861C355.098 57.8594 354.893 58.0866 354.749 58.3679C354.607 58.6463 354.536 58.9489 354.536 59.2756V60.0213C354.536 60.4588 354.612 60.831 354.766 61.1378C354.922 61.4446 355.139 61.679 355.418 61.8409C355.696 62 356.021 62.0795 356.393 62.0795C356.635 62.0795 356.855 62.0455 357.054 61.9773C357.253 61.9062 357.425 61.8011 357.57 61.6619C357.714 61.5227 357.825 61.3509 357.902 61.1463L359.108 61.3636C359.011 61.7187 358.838 62.0298 358.588 62.2969C358.341 62.5611 358.03 62.767 357.655 62.9148C357.283 63.0597 356.858 63.1321 356.381 63.1321ZM365.507 58.0526L364.353 58.2571C364.304 58.1094 364.228 57.9687 364.123 57.8352C364.02 57.7017 363.881 57.5923 363.705 57.5071C363.529 57.4219 363.309 57.3793 363.044 57.3793C362.684 57.3793 362.382 57.4602 362.141 57.6222C361.9 57.7812 361.779 57.9872 361.779 58.2401C361.779 58.4588 361.86 58.6349 362.022 58.7685C362.184 58.902 362.445 59.0114 362.806 59.0966L363.846 59.3352C364.448 59.4744 364.897 59.6889 365.192 59.9787C365.488 60.2685 365.635 60.6449 365.635 61.108C365.635 61.5 365.522 61.8494 365.294 62.1562C365.07 62.4602 364.756 62.6989 364.353 62.8722C363.952 63.0455 363.488 63.1321 362.959 63.1321C362.226 63.1321 361.628 62.9759 361.165 62.6634C360.702 62.348 360.418 61.9006 360.313 61.321L361.544 61.1335C361.621 61.4545 361.779 61.6974 362.017 61.8622C362.256 62.0241 362.567 62.1051 362.951 62.1051C363.368 62.1051 363.702 62.0185 363.952 61.8452C364.202 61.669 364.327 61.4545 364.327 61.2017C364.327 60.9972 364.25 60.8253 364.097 60.6861C363.946 60.5469 363.715 60.4418 363.402 60.3707L362.294 60.1278C361.684 59.9886 361.232 59.767 360.939 59.4631C360.65 59.1591 360.505 58.7741 360.505 58.3082C360.505 57.9219 360.613 57.5838 360.828 57.294C361.044 57.0043 361.343 56.7784 361.723 56.6165C362.104 56.4517 362.54 56.3693 363.032 56.3693C363.739 56.3693 364.296 56.5227 364.702 56.8295C365.108 57.1335 365.377 57.5412 365.507 58.0526Z" fill="#000080" />
</g>
</g>
</g>
<g id="Checkbox icon_5">
<rect x="465.5" y="67.5" width="52" height="139" rx="4.5" stroke="#9747FF" stroke-dasharray="10 5" />
<g id="State=Default, Selected=no" filter="url(#filter5_iiii_1_2)">
<rect width="13" height="13" transform="translate(485 87)" fill="white" />
</g>
<g id="State=Default, Selected=yes" filter="url(#filter6_iiii_1_2)">
<rect width="13" height="13" transform="translate(485 116)" fill="white" />
<g id="Check icon_2">
<path id="Union_4" d="M495 119H494V120H493V121H492V122H491V123H490V122H489V121H488V124H489V125H490V126H491V125H492V124H493V123H494V122H495V119Z" fill="black" />
</g>
</g>
<g id="State=Disabled, Selected=no" filter="url(#filter7_iiii_1_2)">
<rect width="13" height="13" transform="translate(485 145)" fill="#C0C0C0" />
</g>
<g id="State=Disabled, Selected=yes" filter="url(#filter8_iiii_1_2)">
<rect width="13" height="13" transform="translate(485 174)" fill="#C0C0C0" />
<g id="Disabled Check icon_2">
<path id="Union_5" d="M496 178H495V179H494V180H493V181H492V182H491V181H490V180H489V183H490V184H491V185H492V184H493V183H494V182H495V181H496V178Z" fill="white" />
<path id="Union_6" d="M495 177H494V178H493V179H492V180H491V181H490V180H489V179H488V182H489V183H490V184H491V183H492V182H493V181H494V180H495V177Z" fill="#808080" />
</g>
</g>
</g>
<g id="Selector Instance Table">
<g id="Instances_2">
<rect x="145.5" y="304.5" width="118" height="121" rx="4.5" stroke="#000080" stroke-dasharray="10 5" />
<g id="Row_3">
<g id="Instance_5">
<mask id="path-20-inside-4_1_2" fill="white">
<path d="M145 304H264V365H145V304Z" />
</mask>
<path d="M145 365.5H149.958V364.5H145V365.5ZM154.917 365.5H164.833V364.5H154.917V365.5ZM169.792 365.5H179.708V364.5H169.792V365.5ZM184.667 365.5H194.583V364.5H184.667V365.5ZM199.542 365.5H209.458V364.5H199.542V365.5ZM214.417 365.5H224.333V364.5H214.417V365.5ZM229.292 365.5H239.208V364.5H229.292V365.5ZM244.167 365.5H254.083V364.5H244.167V365.5ZM259.042 365.5H264V364.5H259.042V365.5ZM145 366H149.958V364H145V366ZM154.917 366H164.833V364H154.917V366ZM169.792 366H179.708V364H169.792V366ZM184.667 366H194.583V364H184.667V366ZM199.542 366H209.458V364H199.542V366ZM214.417 366H224.333V364H214.417V366ZM229.292 366H239.208V364H229.292V366ZM244.167 366H254.083V364H244.167V366ZM259.042 366H264V364H259.042V366Z" fill="#000080" mask="url(#path-20-inside-4_1_2)" />
<g id="Selector" clip-path="url(#clip0_1_2)">
<g id="Checkbox icon_6" filter="url(#filter9_iiii_1_2)">
<rect width="13" height="13" transform="translate(169 328)" fill="white" />
</g>
<path id="Placeholder" d="M189.419 330.471V333.111H192.939V333.991H189.419V337.5H188.55V329.591H192.939V330.471H189.419ZM193.819 333.111H192.939V330.471H193.819V333.111ZM195.8 337.5H194.931V329.591H195.8V337.5ZM200.416 333.111H197.776V332.22H200.416V333.111ZM197.776 336.631H196.907V334.86H197.776V336.631ZM200.416 333.111H201.296V337.5H197.776V336.631H200.416V334.86H197.776V333.991H200.416V333.111ZM206.796 336.631H205.916V335.751H206.796V336.631ZM203.276 336.631H202.407V333.111H203.276V336.631ZM205.916 337.511H203.276V336.631H205.916V337.511ZM205.916 333.111H203.276V332.231H205.916V333.111ZM206.796 333.991H205.916V333.111H206.796V333.991ZM211.416 337.511H208.776V336.631H211.416V337.511ZM212.296 336.631H211.416V335.751H212.296V336.631ZM211.416 333.111H208.776V332.231H211.416V333.111ZM212.296 334.871H208.776V336.631H207.907V333.111H208.776V333.991H211.416V333.111H212.296V334.871ZM214.276 329.591V333.111H215.156V333.991H214.276V337.5H213.407V329.591H214.276ZM216.916 333.111H215.156V332.231H216.916V333.111ZM217.796 337.511H216.916V333.111H217.796V337.511ZM222.416 337.511H219.776V336.631H222.416V337.511ZM219.776 336.631H218.907V333.111H219.776V336.631ZM222.416 333.111H219.776V332.231H222.416V333.111ZM223.296 336.631H222.416V333.111H223.296V336.631ZM225.276 337.5H224.407V329.591H225.276V337.5ZM227.253 336.631H226.384V333.111H227.253V336.631ZM229.893 329.591H230.773V337.5H227.253V336.631H229.893V333.111H227.253V332.22H229.893V329.591ZM235.393 337.511H232.753V336.631H235.393V337.511ZM236.273 336.631H235.393V335.751H236.273V336.631ZM235.393 333.111H232.753V332.231H235.393V333.111ZM236.273 334.871H232.753V336.631H231.884V333.111H232.753V333.991H235.393V333.111H236.273V334.871ZM237.384 332.22H239.133V333.111H238.253V337.5H237.384V332.22Z" fill="white" />
</g>
</g>
</g>
<g id="Row_4">
<g id="Instance_6">
<g id="Selector_2" clip-path="url(#clip1_1_2)">
<g id="Checkbox icon_7" filter="url(#filter10_iiii_1_2)">
<rect width="13" height="13" transform="translate(169 389)" fill="#C0C0C0" />
</g>
<path id="Placeholder_2" d="M189.419 391.471V394.111H192.939V394.991H189.419V398.5H188.55V390.591H192.939V391.471H189.419ZM193.819 394.111H192.939V391.471H193.819V394.111ZM195.8 398.5H194.931V390.591H195.8V398.5ZM200.416 394.111H197.776V393.22H200.416V394.111ZM197.776 397.631H196.907V395.86H197.776V397.631ZM200.416 394.111H201.296V398.5H197.776V397.631H200.416V395.86H197.776V394.991H200.416V394.111ZM206.796 397.631H205.916V396.751H206.796V397.631ZM203.276 397.631H202.407V394.111H203.276V397.631ZM205.916 398.511H203.276V397.631H205.916V398.511ZM205.916 394.111H203.276V393.231H205.916V394.111ZM206.796 394.991H205.916V394.111H206.796V394.991ZM211.416 398.511H208.776V397.631H211.416V398.511ZM212.296 397.631H211.416V396.751H212.296V397.631ZM211.416 394.111H208.776V393.231H211.416V394.111ZM212.296 395.871H208.776V397.631H207.907V394.111H208.776V394.991H211.416V394.111H212.296V395.871ZM214.276 390.591V394.111H215.156V394.991H214.276V398.5H213.407V390.591H214.276ZM216.916 394.111H215.156V393.231H216.916V394.111ZM217.796 398.511H216.916V394.111H217.796V398.511ZM222.416 398.511H219.776V397.631H222.416V398.511ZM219.776 397.631H218.907V394.111H219.776V397.631ZM222.416 394.111H219.776V393.231H222.416V394.111ZM223.296 397.631H222.416V394.111H223.296V397.631ZM225.276 398.5H224.407V390.591H225.276V398.5ZM227.253 397.631H226.384V394.111H227.253V397.631ZM229.893 390.591H230.773V398.5H227.253V397.631H229.893V394.111H227.253V393.22H229.893V390.591ZM235.393 398.511H232.753V397.631H235.393V398.511ZM236.273 397.631H235.393V396.751H236.273V397.631ZM235.393 394.111H232.753V393.231H235.393V394.111ZM236.273 395.871H232.753V397.631H231.884V394.111H232.753V394.991H235.393V394.111H236.273V395.871ZM237.384 393.22H239.133V394.111H238.253V398.5H237.384V393.22Z" fill="#808080" />
</g>
</g>
</g>
</g>
<g id="Labels_2">
<g id="Label_5">
<path id="Text_5" d="M96.7841 339H93.9588V330.273H96.8736C97.7287 330.273 98.4631 330.447 99.0767 330.797C99.6903 331.143 100.161 331.642 100.487 332.293C100.817 332.94 100.982 333.717 100.982 334.624C100.982 335.533 100.815 336.314 100.483 336.967C100.153 337.621 99.6761 338.124 99.0511 338.476C98.4261 338.825 97.6705 339 96.7841 339ZM95.2756 337.849H96.7116C97.3764 337.849 97.929 337.724 98.3693 337.474C98.8097 337.222 99.1392 336.857 99.358 336.379C99.5767 335.899 99.6861 335.314 99.6861 334.624C99.6861 333.939 99.5767 333.358 99.358 332.881C99.142 332.403 98.8196 332.041 98.3906 331.794C97.9616 331.547 97.429 331.423 96.7926 331.423H95.2756V337.849ZM105.338 339.132C104.693 339.132 104.137 338.994 103.672 338.719C103.208 338.44 102.85 338.05 102.598 337.547C102.348 337.041 102.223 336.449 102.223 335.77C102.223 335.099 102.348 334.509 102.598 333.997C102.85 333.486 103.203 333.087 103.654 332.8C104.109 332.513 104.64 332.369 105.248 332.369C105.618 332.369 105.975 332.43 106.322 332.553C106.669 332.675 106.98 332.866 107.255 333.128C107.531 333.389 107.748 333.729 107.907 334.146C108.066 334.561 108.146 335.065 108.146 335.659V336.111H102.943V335.156H106.897C106.897 334.821 106.829 334.524 106.693 334.266C106.556 334.004 106.365 333.798 106.118 333.648C105.873 333.497 105.586 333.422 105.257 333.422C104.899 333.422 104.586 333.51 104.319 333.686C104.055 333.859 103.85 334.087 103.706 334.368C103.564 334.646 103.493 334.949 103.493 335.276V336.021C103.493 336.459 103.569 336.831 103.723 337.138C103.879 337.445 104.096 337.679 104.375 337.841C104.653 338 104.978 338.08 105.35 338.08C105.592 338.08 105.812 338.045 106.011 337.977C106.21 337.906 106.382 337.801 106.527 337.662C106.672 337.523 106.782 337.351 106.859 337.146L108.065 337.364C107.968 337.719 107.795 338.03 107.545 338.297C107.298 338.561 106.987 338.767 106.612 338.915C106.24 339.06 105.815 339.132 105.338 339.132ZM112.675 332.455V333.477H108.976V332.455H112.675ZM109.99 339V331.696C109.99 331.287 110.08 330.947 110.259 330.678C110.438 330.405 110.675 330.202 110.97 330.068C111.266 329.932 111.587 329.864 111.933 329.864C112.189 329.864 112.408 329.885 112.589 329.928C112.771 329.967 112.906 330.004 112.994 330.038L112.696 331.07C112.636 331.053 112.56 331.033 112.466 331.01C112.372 330.984 112.259 330.972 112.125 330.972C111.815 330.972 111.594 331.048 111.46 331.202C111.33 331.355 111.264 331.577 111.264 331.866V339H109.99ZM115.695 339.145C115.28 339.145 114.905 339.068 114.57 338.915C114.235 338.759 113.969 338.533 113.773 338.237C113.58 337.942 113.483 337.58 113.483 337.151C113.483 336.781 113.554 336.477 113.696 336.239C113.838 336 114.03 335.811 114.272 335.672C114.513 335.533 114.783 335.428 115.081 335.357C115.38 335.286 115.684 335.232 115.993 335.195C116.385 335.149 116.703 335.112 116.948 335.084C117.192 335.053 117.37 335.003 117.48 334.935C117.591 334.866 117.647 334.756 117.647 334.602V334.572C117.647 334.2 117.542 333.912 117.331 333.707C117.124 333.503 116.814 333.401 116.402 333.401C115.973 333.401 115.635 333.496 115.388 333.686C115.144 333.874 114.975 334.082 114.881 334.312L113.684 334.04C113.826 333.642 114.033 333.321 114.306 333.077C114.581 332.83 114.898 332.651 115.256 332.54C115.614 332.426 115.99 332.369 116.385 332.369C116.647 332.369 116.924 332.401 117.216 332.463C117.512 332.523 117.787 332.634 118.043 332.795C118.301 332.957 118.513 333.189 118.678 333.49C118.843 333.788 118.925 334.176 118.925 334.653V339H117.681V338.105H117.63C117.547 338.27 117.424 338.432 117.259 338.591C117.094 338.75 116.882 338.882 116.624 338.987C116.365 339.092 116.056 339.145 115.695 339.145ZM115.972 338.122C116.324 338.122 116.625 338.053 116.875 337.913C117.128 337.774 117.32 337.592 117.451 337.368C117.584 337.141 117.651 336.898 117.651 336.639V335.795C117.605 335.841 117.517 335.884 117.387 335.923C117.259 335.96 117.113 335.993 116.948 336.021C116.783 336.047 116.623 336.071 116.466 336.094C116.31 336.114 116.179 336.131 116.074 336.145C115.827 336.176 115.601 336.229 115.397 336.303C115.195 336.376 115.033 336.483 114.911 336.622C114.792 336.759 114.732 336.94 114.732 337.168C114.732 337.483 114.848 337.722 115.081 337.884C115.314 338.043 115.611 338.122 115.972 338.122ZM124.768 336.286V332.455H126.047V339H124.794V337.866H124.726C124.575 338.216 124.334 338.507 124.001 338.74C123.672 338.97 123.261 339.085 122.77 339.085C122.349 339.085 121.977 338.993 121.653 338.808C121.332 338.621 121.08 338.344 120.895 337.977C120.713 337.611 120.622 337.158 120.622 336.618V332.455H121.896V336.464C121.896 336.911 122.02 337.266 122.267 337.53C122.514 337.794 122.835 337.926 123.23 337.926C123.469 337.926 123.706 337.866 123.942 337.747C124.18 337.628 124.378 337.447 124.534 337.206C124.693 336.964 124.771 336.658 124.768 336.286ZM129.033 330.273V339H127.759V330.273H129.033ZM133.803 332.455V333.477H130.227V332.455H133.803ZM131.186 330.886H132.46V337.078C132.46 337.325 132.497 337.511 132.571 337.636C132.645 337.759 132.74 337.842 132.857 337.888C132.976 337.93 133.105 337.952 133.244 337.952C133.347 337.952 133.436 337.945 133.513 337.93C133.589 337.916 133.649 337.905 133.692 337.896L133.922 338.949C133.848 338.977 133.743 339.006 133.607 339.034C133.47 339.065 133.3 339.082 133.095 339.085C132.76 339.091 132.447 339.031 132.158 338.906C131.868 338.781 131.634 338.588 131.455 338.327C131.276 338.065 131.186 337.737 131.186 337.342V330.886Z" fill="#000080" />
</g>
<g id="Label_6">
<path id="Text_6" d="M88.7841 400H85.9588V391.273H88.8736C89.7287 391.273 90.4631 391.447 91.0767 391.797C91.6903 392.143 92.1605 392.642 92.4872 393.293C92.8168 393.94 92.9815 394.717 92.9815 395.624C92.9815 396.533 92.8153 397.314 92.483 397.967C92.1534 398.621 91.6761 399.124 91.0511 399.476C90.4261 399.825 89.6705 400 88.7841 400ZM87.2756 398.849H88.7116C89.3764 398.849 89.929 398.724 90.3693 398.474C90.8097 398.222 91.1392 397.857 91.358 397.379C91.5767 396.899 91.6861 396.314 91.6861 395.624C91.6861 394.939 91.5767 394.358 91.358 393.881C91.142 393.403 90.8196 393.041 90.3906 392.794C89.9616 392.547 89.429 392.423 88.7926 392.423H87.2756V398.849ZM94.5167 400V393.455H95.7908V400H94.5167ZM95.1602 392.445C94.9386 392.445 94.7482 392.371 94.5891 392.223C94.4329 392.072 94.3548 391.893 94.3548 391.686C94.3548 391.476 94.4329 391.297 94.5891 391.149C94.7482 390.999 94.9386 390.923 95.1602 390.923C95.3817 390.923 95.5707 390.999 95.7269 391.149C95.886 391.297 95.9656 391.476 95.9656 391.686C95.9656 391.893 95.886 392.072 95.7269 392.223C95.5707 392.371 95.3817 392.445 95.1602 392.445ZM102.41 395.053L101.255 395.257C101.207 395.109 101.13 394.969 101.025 394.835C100.923 394.702 100.783 394.592 100.607 394.507C100.431 394.422 100.211 394.379 99.9467 394.379C99.5859 394.379 99.2848 394.46 99.0433 394.622C98.8018 394.781 98.6811 394.987 98.6811 395.24C98.6811 395.459 98.7621 395.635 98.924 395.768C99.0859 395.902 99.3473 396.011 99.7081 396.097L100.748 396.335C101.35 396.474 101.799 396.689 102.094 396.979C102.39 397.268 102.538 397.645 102.538 398.108C102.538 398.5 102.424 398.849 102.197 399.156C101.972 399.46 101.658 399.699 101.255 399.872C100.854 400.045 100.39 400.132 99.8615 400.132C99.1286 400.132 98.5305 399.976 98.0675 399.663C97.6044 399.348 97.3203 398.901 97.2152 398.321L98.4467 398.134C98.5234 398.455 98.6811 398.697 98.9197 398.862C99.1584 399.024 99.4695 399.105 99.853 399.105C100.271 399.105 100.604 399.018 100.854 398.845C101.104 398.669 101.229 398.455 101.229 398.202C101.229 397.997 101.153 397.825 100.999 397.686C100.849 397.547 100.617 397.442 100.305 397.371L99.1967 397.128C98.5859 396.989 98.1342 396.767 97.8416 396.463C97.5518 396.159 97.407 395.774 97.407 395.308C97.407 394.922 97.5149 394.584 97.7308 394.294C97.9467 394.004 98.245 393.778 98.6257 393.616C99.0064 393.452 99.4425 393.369 99.9339 393.369C100.641 393.369 101.198 393.523 101.604 393.83C102.011 394.134 102.279 394.541 102.41 395.053ZM105.843 400.145C105.429 400.145 105.054 400.068 104.718 399.915C104.383 399.759 104.118 399.533 103.922 399.237C103.728 398.942 103.632 398.58 103.632 398.151C103.632 397.781 103.703 397.477 103.845 397.239C103.987 397 104.179 396.811 104.42 396.672C104.662 396.533 104.931 396.428 105.23 396.357C105.528 396.286 105.832 396.232 106.142 396.195C106.534 396.149 106.852 396.112 107.096 396.084C107.341 396.053 107.518 396.003 107.629 395.935C107.74 395.866 107.795 395.756 107.795 395.602V395.572C107.795 395.2 107.69 394.912 107.48 394.707C107.272 394.503 106.963 394.401 106.551 394.401C106.122 394.401 105.784 394.496 105.537 394.686C105.292 394.874 105.123 395.082 105.029 395.312L103.832 395.04C103.974 394.642 104.181 394.321 104.454 394.077C104.73 393.83 105.047 393.651 105.404 393.54C105.762 393.426 106.139 393.369 106.534 393.369C106.795 393.369 107.072 393.401 107.365 393.463C107.66 393.523 107.936 393.634 108.191 393.795C108.45 393.957 108.662 394.189 108.826 394.49C108.991 394.788 109.074 395.176 109.074 395.653V400H107.829V399.105H107.778C107.696 399.27 107.572 399.432 107.407 399.591C107.243 399.75 107.031 399.882 106.772 399.987C106.514 400.092 106.204 400.145 105.843 400.145ZM106.12 399.122C106.473 399.122 106.774 399.053 107.024 398.913C107.277 398.774 107.468 398.592 107.599 398.368C107.733 398.141 107.799 397.898 107.799 397.639V396.795C107.754 396.841 107.666 396.884 107.535 396.923C107.407 396.96 107.261 396.993 107.096 397.021C106.931 397.047 106.771 397.071 106.615 397.094C106.458 397.114 106.328 397.131 106.223 397.145C105.975 397.176 105.75 397.229 105.545 397.303C105.343 397.376 105.181 397.483 105.059 397.622C104.94 397.759 104.88 397.94 104.88 398.168C104.88 398.483 104.997 398.722 105.23 398.884C105.463 399.043 105.76 399.122 106.12 399.122ZM110.873 400V391.273H112.147V394.516H112.224C112.298 394.379 112.404 394.222 112.543 394.043C112.683 393.864 112.876 393.707 113.123 393.574C113.37 393.438 113.697 393.369 114.103 393.369C114.631 393.369 115.103 393.503 115.518 393.77C115.933 394.037 116.258 394.422 116.494 394.925C116.732 395.428 116.852 396.033 116.852 396.74C116.852 397.447 116.734 398.054 116.498 398.56C116.262 399.062 115.938 399.45 115.526 399.723C115.114 399.993 114.644 400.128 114.116 400.128C113.718 400.128 113.393 400.061 113.14 399.928C112.89 399.794 112.694 399.638 112.552 399.459C112.41 399.28 112.3 399.121 112.224 398.982H112.117V400H110.873ZM112.121 396.727C112.121 397.187 112.188 397.591 112.322 397.938C112.455 398.284 112.648 398.555 112.901 398.751C113.154 398.945 113.464 399.041 113.83 399.041C114.211 399.041 114.529 398.94 114.785 398.739C115.04 398.534 115.234 398.257 115.364 397.908C115.498 397.558 115.565 397.165 115.565 396.727C115.565 396.295 115.499 395.908 115.369 395.564C115.241 395.22 115.048 394.949 114.789 394.75C114.533 394.551 114.214 394.452 113.83 394.452C113.461 394.452 113.148 394.547 112.893 394.737C112.64 394.928 112.448 395.193 112.317 395.534C112.187 395.875 112.121 396.273 112.121 396.727ZM119.556 391.273V400H118.282V391.273H119.556ZM124.092 400.132C123.447 400.132 122.891 399.994 122.425 399.719C121.962 399.44 121.604 399.05 121.352 398.547C121.102 398.041 120.977 397.449 120.977 396.77C120.977 396.099 121.102 395.509 121.352 394.997C121.604 394.486 121.957 394.087 122.408 393.8C122.863 393.513 123.394 393.369 124.002 393.369C124.371 393.369 124.729 393.43 125.076 393.553C125.423 393.675 125.734 393.866 126.009 394.128C126.285 394.389 126.502 394.729 126.661 395.146C126.82 395.561 126.9 396.065 126.9 396.659V397.111H121.697V396.156H125.651C125.651 395.821 125.583 395.524 125.447 395.266C125.31 395.004 125.119 394.798 124.871 394.648C124.627 394.497 124.34 394.422 124.011 394.422C123.653 394.422 123.34 394.51 123.073 394.686C122.809 394.859 122.604 395.087 122.46 395.368C122.317 395.646 122.246 395.949 122.246 396.276V397.021C122.246 397.459 122.323 397.831 122.477 398.138C122.633 398.445 122.85 398.679 123.129 398.841C123.407 399 123.732 399.08 124.104 399.08C124.346 399.08 124.566 399.045 124.765 398.977C124.964 398.906 125.136 398.801 125.281 398.662C125.425 398.523 125.536 398.351 125.613 398.146L126.819 398.364C126.722 398.719 126.549 399.03 126.299 399.297C126.052 399.561 125.741 399.767 125.366 399.915C124.994 400.06 124.569 400.132 124.092 400.132ZM130.764 400.128C130.235 400.128 129.764 399.993 129.349 399.723C128.937 399.45 128.613 399.062 128.377 398.56C128.145 398.054 128.028 397.447 128.028 396.74C128.028 396.033 128.146 395.428 128.382 394.925C128.62 394.422 128.947 394.037 129.362 393.77C129.777 393.503 130.247 393.369 130.772 393.369C131.179 393.369 131.505 393.438 131.752 393.574C132.002 393.707 132.196 393.864 132.332 394.043C132.471 394.222 132.579 394.379 132.656 394.516H132.733V391.273H134.007V400H132.762V398.982H132.656C132.579 399.121 132.468 399.28 132.324 399.459C132.181 399.638 131.985 399.794 131.735 399.928C131.485 400.061 131.162 400.128 130.764 400.128ZM131.045 399.041C131.412 399.041 131.721 398.945 131.974 398.751C132.23 398.555 132.423 398.284 132.554 397.938C132.687 397.591 132.754 397.187 132.754 396.727C132.754 396.273 132.689 395.875 132.558 395.534C132.427 395.193 132.235 394.928 131.983 394.737C131.73 394.547 131.417 394.452 131.045 394.452C130.662 394.452 130.342 394.551 130.086 394.75C129.831 394.949 129.637 395.22 129.507 395.564C129.379 395.908 129.315 396.295 129.315 396.727C129.315 397.165 129.38 397.558 129.511 397.908C129.642 398.257 129.835 398.534 130.091 398.739C130.349 398.94 130.667 399.041 131.045 399.041Z" fill="#000080" />
</g>
</g>
</g>
<g id="Selector_3">
<rect x="338.5" y="328.5" width="110" height="80" rx="4.5" stroke="#9747FF" stroke-dasharray="10 5" />
<g id="Type=Default" clip-path="url(#clip2_1_2)">
<g id="Checkbox icon_8" filter="url(#filter11_iiii_1_2)">
<rect width="13" height="13" transform="translate(358 348)" fill="white" />
</g>
<path id="Placeholder_3" d="M378.419 350.471V353.111H381.939V353.991H378.419V357.5H377.55V349.591H381.939V350.471H378.419ZM382.819 353.111H381.939V350.471H382.819V353.111ZM384.8 357.5H383.931V349.591H384.8V357.5ZM389.416 353.111H386.776V352.22H389.416V353.111ZM386.776 356.631H385.907V354.86H386.776V356.631ZM389.416 353.111H390.296V357.5H386.776V356.631H389.416V354.86H386.776V353.991H389.416V353.111ZM395.796 356.631H394.916V355.751H395.796V356.631ZM392.276 356.631H391.407V353.111H392.276V356.631ZM394.916 357.511H392.276V356.631H394.916V357.511ZM394.916 353.111H392.276V352.231H394.916V353.111ZM395.796 353.991H394.916V353.111H395.796V353.991ZM400.416 357.511H397.776V356.631H400.416V357.511ZM401.296 356.631H400.416V355.751H401.296V356.631ZM400.416 353.111H397.776V352.231H400.416V353.111ZM401.296 354.871H397.776V356.631H396.907V353.111H397.776V353.991H400.416V353.111H401.296V354.871ZM403.276 349.591V353.111H404.156V353.991H403.276V357.5H402.407V349.591H403.276ZM405.916 353.111H404.156V352.231H405.916V353.111ZM406.796 357.511H405.916V353.111H406.796V357.511ZM411.416 357.511H408.776V356.631H411.416V357.511ZM408.776 356.631H407.907V353.111H408.776V356.631ZM411.416 353.111H408.776V352.231H411.416V353.111ZM412.296 356.631H411.416V353.111H412.296V356.631ZM414.276 357.5H413.407V349.591H414.276V357.5ZM416.253 356.631H415.384V353.111H416.253V356.631ZM418.893 349.591H419.773V357.5H416.253V356.631H418.893V353.111H416.253V352.22H418.893V349.591ZM424.393 357.511H421.753V356.631H424.393V357.511ZM425.273 356.631H424.393V355.751H425.273V356.631ZM424.393 353.111H421.753V352.231H424.393V353.111ZM425.273 354.871H421.753V356.631H420.884V353.111H421.753V353.991H424.393V353.111H425.273V354.871ZM426.384 352.22H428.133V353.111H427.253V357.5H426.384V352.22Z" fill="white" />
</g>
<g id="Type=Disabled" clip-path="url(#clip3_1_2)">
<g id="Checkbox icon_9" filter="url(#filter12_iiii_1_2)">
<rect width="13" height="13" transform="translate(358 376)" fill="#C0C0C0" />
</g>
<path id="Placeholder_4" d="M378.419 378.471V381.111H381.939V381.991H378.419V385.5H377.55V377.591H381.939V378.471H378.419ZM382.819 381.111H381.939V378.471H382.819V381.111ZM384.8 385.5H383.931V377.591H384.8V385.5ZM389.416 381.111H386.776V380.22H389.416V381.111ZM386.776 384.631H385.907V382.86H386.776V384.631ZM389.416 381.111H390.296V385.5H386.776V384.631H389.416V382.86H386.776V381.991H389.416V381.111ZM395.796 384.631H394.916V383.751H395.796V384.631ZM392.276 384.631H391.407V381.111H392.276V384.631ZM394.916 385.511H392.276V384.631H394.916V385.511ZM394.916 381.111H392.276V380.231H394.916V381.111ZM395.796 381.991H394.916V381.111H395.796V381.991ZM400.416 385.511H397.776V384.631H400.416V385.511ZM401.296 384.631H400.416V383.751H401.296V384.631ZM400.416 381.111H397.776V380.231H400.416V381.111ZM401.296 382.871H397.776V384.631H396.907V381.111H397.776V381.991H400.416V381.111H401.296V382.871ZM403.276 377.591V381.111H404.156V381.991H403.276V385.5H402.407V377.591H403.276ZM405.916 381.111H404.156V380.231H405.916V381.111ZM406.796 385.511H405.916V381.111H406.796V385.511ZM411.416 385.511H408.776V384.631H411.416V385.511ZM408.776 384.631H407.907V381.111H408.776V384.631ZM411.416 381.111H408.776V380.231H411.416V381.111ZM412.296 384.631H411.416V381.111H412.296V384.631ZM414.276 385.5H413.407V377.591H414.276V385.5ZM416.253 384.631H415.384V381.111H416.253V384.631ZM418.893 377.591H419.773V385.5H416.253V384.631H418.893V381.111H416.253V380.22H418.893V377.591ZM424.393 385.511H421.753V384.631H424.393V385.511ZM425.273 384.631H424.393V383.751H425.273V384.631ZM424.393 381.111H421.753V380.231H424.393V381.111ZM425.273 382.871H421.753V384.631H420.884V381.111H421.753V381.991H424.393V381.111H425.273V382.871ZM426.384 380.22H428.133V381.111H427.253V385.5H426.384V380.22Z" fill="#808080" />
</g>
</g>
</g>
<defs><clipPath id="clip0_1_2">
<rect width="71" height="13" fill="white" transform="translate(169 328)" />
</clipPath>
<clipPath id="clip1_1_2">
<rect width="71" height="13" fill="white" transform="translate(169 389)" />
</clipPath>
<clipPath id="clip2_1_2">
<rect width="71" height="13" fill="white" transform="translate(358 348)" />
</clipPath>
<clipPath id="clip3_1_2">
<rect width="71" height="13" fill="white" transform="translate(358 376)" />
</clipPath>
<filter id="filter0_iiii_1_2" x="0" y="0" width="607" height="504" filterUnits="userSpaceOnUse" color-interpolation-filters="sRGB">
<feFlood flood-opacity="0" result="BackgroundImageFix" />
<feBlend mode="normal" in="SourceGraphic" in2="BackgroundImageFix" result="shape" />
<feColorMatrix in="SourceAlpha" type="matrix" values="0 0 0 0 0 0 0 0 0 0 0 0 0 0 0 0 0 0 127 0" result="hardAlpha" />
<feOffset dx="2" dy="2" />
<feComposite in2="hardAlpha" operator="arithmetic" k2="-1" k3="1" />
<feColorMatrix type="matrix" values="0 0 0 0 0.87451 0 0 0 0 0.87451 0 0 0 0 0.87451 0 0 0 1 0" />
<feBlend mode="normal" in2="shape" result="effect1_innerShadow_1_2" />
<feColorMatrix in="SourceAlpha" type="matrix" values="0 0 0 0 0 0 0 0 0 0 0 0 0 0 0 0 0 0 127 0" result="hardAlpha" />
<feOffset dx="-2" dy="-2" />
<feComposite in2="hardAlpha" operator="arithmetic" k2="-1" k3="1" />
<feColorMatrix type="matrix" values="0 0 0 0 0.498039 0 0 0 0 0.498039 0 0 0 0 0.498039 0 0 0 1 0" />
<feBlend mode="normal" in2="effect1_innerShadow_1_2" result="effect2_innerShadow_1_2" />
<feColorMatrix in="SourceAlpha" type="matrix" values="0 0 0 0 0 0 0 0 0 0 0 0 0 0 0 0 0 0 127 0" result="hardAlpha" />
<feOffset dx="1" dy="1" />
<feComposite in2="hardAlpha" operator="arithmetic" k2="-1" k3="1" />
<feColorMatrix type="matrix" values="0 0 0 0 1 0 0 0 0 1 0 0 0 0 1 0 0 0 1 0" />
<feBlend mode="normal" in2="effect2_innerShadow_1_2" result="effect3_innerShadow_1_2" />
<feColorMatrix in="SourceAlpha" type="matrix" values="0 0 0 0 0 0 0 0 0 0 0 0 0 0 0 0 0 0 127 0" result="hardAlpha" />
<feOffset dx="-1" dy="-1" />
<feComposite in2="hardAlpha" operator="arithmetic" k2="-1" k3="1" />
<feColorMatrix type="matrix" values="0 0 0 0 0 0 0 0 0 0 0 0 0 0 0 0 0 0 1 0" />
<feBlend mode="normal" in2="effect3_innerShadow_1_2" result="effect4_innerShadow_1_2" />
</filter>
<filter id="filter10_iiii_1_2" x="169" y="389" width="13" height="13" filterUnits="userSpaceOnUse" color-interpolation-filters="sRGB">
<feFlood flood-opacity="0" result="BackgroundImageFix" />
<feBlend mode="normal" in="SourceGraphic" in2="BackgroundImageFix" result="shape" />
<feColorMatrix in="SourceAlpha" type="matrix" values="0 0 0 0 0 0 0 0 0 0 0 0 0 0 0 0 0 0 127 0" result="hardAlpha" />
<feOffset dx="2" dy="2" />
<feComposite in2="hardAlpha" operator="arithmetic" k2="-1" k3="1" />
<feColorMatrix type="matrix" values="0 0 0 0 0 0 0 0 0 0 0 0 0 0 0 0 0 0 1 0" />
<feBlend mode="normal" in2="shape" result="effect1_innerShadow_1_2" />
<feColorMatrix in="SourceAlpha" type="matrix" values="0 0 0 0 0 0 0 0 0 0 0 0 0 0 0 0 0 0 127 0" result="hardAlpha" />
<feOffset dx="-2" dy="-2" />
<feComposite in2="hardAlpha" operator="arithmetic" k2="-1" k3="1" />
<feColorMatrix type="matrix" values="0 0 0 0 0.756863 0 0 0 0 0.756863 0 0 0 0 0.756863 0 0 0 1 0" />
<feBlend mode="normal" in2="effect1_innerShadow_1_2" result="effect2_innerShadow_1_2" />
<feColorMatrix in="SourceAlpha" type="matrix" values="0 0 0 0 0 0 0 0 0 0 0 0 0 0 0 0 0 0 127 0" result="hardAlpha" />
<feOffset dx="1" dy="1" />
<feComposite in2="hardAlpha" operator="arithmetic" k2="-1" k3="1" />
<feColorMatrix type="matrix" values="0 0 0 0 0.501961 0 0 0 0 0.501961 0 0 0 0 0.501961 0 0 0 1 0" />
<feBlend mode="normal" in2="effect2_innerShadow_1_2" result="effect3_innerShadow_1_2" />
<feColorMatrix in="SourceAlpha" type="matrix" values="0 0 0 0 0 0 0 0 0 0 0 0 0 0 0 0 0 0 127 0" result="hardAlpha" />
<feOffset dx="-1" dy="-1" />
<feComposite in2="hardAlpha" operator="arithmetic" k2="-1" k3="1" />
<feColorMatrix type="matrix" values="0 0 0 0 1 0 0 0 0 1 0 0 0 0 1 0 0 0 1 0" />
<feBlend mode="normal" in2="effect3_innerShadow_1_2" result="effect4_innerShadow_1_2" />
</filter>
<filter id="filter11_iiii_1_2" x="358" y="348" width="13" height="13" filterUnits="userSpaceOnUse" color-interpolation-filters="sRGB">
<feFlood flood-opacity="0" result="BackgroundImageFix" />
<feBlend mode="normal" in="SourceGraphic" in2="BackgroundImageFix" result="shape" />
<feColorMatrix in="SourceAlpha" type="matrix" values="0 0 0 0 0 0 0 0 0 0 0 0 0 0 0 0 0 0 127 0" result="hardAlpha" />
<feOffset dx="2" dy="2" />
<feComposite in2="hardAlpha" operator="arithmetic" k2="-1" k3="1" />
<feColorMatrix type="matrix" values="0 0 0 0 0 0 0 0 0 0 0 0 0 0 0 0 0 0 1 0" />
<feBlend mode="normal" in2="shape" result="effect1_innerShadow_1_2" />
<feColorMatrix in="SourceAlpha" type="matrix" values="0 0 0 0 0 0 0 0 0 0 0 0 0 0 0 0 0 0 127 0" result="hardAlpha" />
<feOffset dx="-2" dy="-2" />
<feComposite in2="hardAlpha" operator="arithmetic" k2="-1" k3="1" />
<feColorMatrix type="matrix" values="0 0 0 0 0.756863 0 0 0 0 0.756863 0 0 0 0 0.756863 0 0 0 1 0" />
<feBlend mode="normal" in2="effect1_innerShadow_1_2" result="effect2_innerShadow_1_2" />
<feColorMatrix in="SourceAlpha" type="matrix" values="0 0 0 0 0 0 0 0 0 0 0 0 0 0 0 0 0 0 127 0" result="hardAlpha" />
<feOffset dx="1" dy="1" />
<feComposite in2="hardAlpha" operator="arithmetic" k2="-1" k3="1" />
<feColorMatrix type="matrix" values="0 0 0 0 0.501961 0 0 0 0 0.501961 0 0 0 0 0.501961 0 0 0 1 0" />
<feBlend mode="normal" in2="effect2_innerShadow_1_2" result="effect3_innerShadow_1_2" />
<feColorMatrix in="SourceAlpha" type="matrix" values="0 0 0 0 0 0 0 0 0 0 0 0 0 0 0 0 0 0 127 0" result="hardAlpha" />
<feOffset dx="-1" dy="-1" />
<feComposite in2="hardAlpha" operator="arithmetic" k2="-1" k3="1" />
<feColorMatrix type="matrix" values="0 0 0 0 1 0 0 0 0 1 0 0 0 0 1 0 0 0 1 0" />
<feBlend mode="normal" in2="effect3_innerShadow_1_2" result="effect4_innerShadow_1_2" />
</filter>
<filter id="filter12_iiii_1_2" x="358" y="376" width="13" height="13" filterUnits="userSpaceOnUse" color-interpolation-filters="sRGB">
<feFlood flood-opacity="0" result="BackgroundImageFix" />
<feBlend mode="normal" in="SourceGraphic" in2="BackgroundImageFix" result="shape" />
<feColorMatrix in="SourceAlpha" type="matrix" values="0 0 0 0 0 0 0 0 0 0 0 0 0 0 0 0 0 0 127 0" result="hardAlpha" />
<feOffset dx="2" dy="2" />
<feComposite in2="hardAlpha" operator="arithmetic" k2="-1" k3="1" />
<feColorMatrix type="matrix" values="0 0 0 0 0 0 0 0 0 0 0 0 0 0 0 0 0 0 1 0" />
<feBlend mode="normal" in2="shape" result="effect1_innerShadow_1_2" />
<feColorMatrix in="SourceAlpha" type="matrix" values="0 0 0 0 0 0 0 0 0 0 0 0 0 0 0 0 0 0 127 0" result="hardAlpha" />
<feOffset dx="-2" dy="-2" />
<feComposite in2="hardAlpha" operator="arithmetic" k2="-1" k3="1" />
<feColorMatrix type="matrix" values="0 0 0 0 0.756863 0 0 0 0 0.756863 0 0 0 0 0.756863 0 0 0 1 0" />
<feBlend mode="normal" in2="effect1_innerShadow_1_2" result="effect2_innerShadow_1_2" />
<feColorMatrix in="SourceAlpha" type="matrix" values="0 0 0 0 0 0 0 0 0 0 0 0 0 0 0 0 0 0 127 0" result="hardAlpha" />
<feOffset dx="1" dy="1" />
<feComposite in2="hardAlpha" operator="arithmetic" k2="-1" k3="1" />
<feColorMatrix type="matrix" values="0 0 0 0 0.501961 0 0 0 0 0.501961 0 0 0 0 0.501961 0 0 0 1 0" />
<feBlend mode="normal" in2="effect2_innerShadow_1_2" result="effect3_innerShadow_1_2" />
<feColorMatrix in="SourceAlpha" type="matrix" values="0 0 0 0 0 0 0 0 0 0 0 0 0 0 0 0 0 0 127 0" result="hardAlpha" />
<feOffset dx="-1" dy="-1" />
<feComposite in2="hardAlpha" operator="arithmetic" k2="-1" k3="1" />
<feColorMatrix type="matrix" values="0 0 0 0 1 0 0 0 0 1 0 0 0 0 1 0 0 0 1 0" />
<feBlend mode="normal" in2="effect3_innerShadow_1_2" result="effect4_innerShadow_1_2" />
</filter>
<filter id="filter1_iiii_1_2" x="198.5" y="100" width="13" height="13" filterUnits="userSpaceOnUse" color-interpolation-filters="sRGB">
<feFlood flood-opacity="0" result="BackgroundImageFix" />
<feBlend mode="normal" in="SourceGraphic" in2="BackgroundImageFix" result="shape" />
<feColorMatrix in="SourceAlpha" type="matrix" values="0 0 0 0 0 0 0 0 0 0 0 0 0 0 0 0 0 0 127 0" result="hardAlpha" />
<feOffset dx="2" dy="2" />
<feComposite in2="hardAlpha" operator="arithmetic" k2="-1" k3="1" />
<feColorMatrix type="matrix" values="0 0 0 0 0 0 0 0 0 0 0 0 0 0 0 0 0 0 1 0" />
<feBlend mode="normal" in2="shape" result="effect1_innerShadow_1_2" />
<feColorMatrix in="SourceAlpha" type="matrix" values="0 0 0 0 0 0 0 0 0 0 0 0 0 0 0 0 0 0 127 0" result="hardAlpha" />
<feOffset dx="-2" dy="-2" />
<feComposite in2="hardAlpha" operator="arithmetic" k2="-1" k3="1" />
<feColorMatrix type="matrix" values="0 0 0 0 0.756863 0 0 0 0 0.756863 0 0 0 0 0.756863 0 0 0 1 0" />
<feBlend mode="normal" in2="effect1_innerShadow_1_2" result="effect2_innerShadow_1_2" />
<feColorMatrix in="SourceAlpha" type="matrix" values="0 0 0 0 0 0 0 0 0 0 0 0 0 0 0 0 0 0 127 0" result="hardAlpha" />
<feOffset dx="1" dy="1" />
<feComposite in2="hardAlpha" operator="arithmetic" k2="-1" k3="1" />
<feColorMatrix type="matrix" values="0 0 0 0 0.501961 0 0 0 0 0.501961 0 0 0 0 0.501961 0 0 0 1 0" />
<feBlend mode="normal" in2="effect2_innerShadow_1_2" result="effect3_innerShadow_1_2" />
<feColorMatrix in="SourceAlpha" type="matrix" values="0 0 0 0 0 0 0 0 0 0 0 0 0 0 0 0 0 0 127 0" result="hardAlpha" />
<feOffset dx="-1" dy="-1" />
<feComposite in2="hardAlpha" operator="arithmetic" k2="-1" k3="1" />
<feColorMatrix type="matrix" values="0 0 0 0 1 0 0 0 0 1 0 0 0 0 1 0 0 0 1 0" />
<feBlend mode="normal" in2="effect3_innerShadow_1_2" result="effect4_innerShadow_1_2" />
</filter>
<filter id="filter2_iiii_1_2" x="321.5" y="100" width="13" height="13" filterUnits="userSpaceOnUse" color-interpolation-filters="sRGB">
<feFlood flood-opacity="0" result="BackgroundImageFix" />
<feBlend mode="normal" in="SourceGraphic" in2="BackgroundImageFix" result="shape" />
<feColorMatrix in="SourceAlpha" type="matrix" values="0 0 0 0 0 0 0 0 0 0 0 0 0 0 0 0 0 0 127 0" result="hardAlpha" />
<feOffset dx="2" dy="2" />
<feComposite in2="hardAlpha" operator="arithmetic" k2="-1" k3="1" />
<feColorMatrix type="matrix" values="0 0 0 0 0 0 0 0 0 0 0 0 0 0 0 0 0 0 1 0" />
<feBlend mode="normal" in2="shape" result="effect1_innerShadow_1_2" />
<feColorMatrix in="SourceAlpha" type="matrix" values="0 0 0 0 0 0 0 0 0 0 0 0 0 0 0 0 0 0 127 0" result="hardAlpha" />
<feOffset dx="-2" dy="-2" />
<feComposite in2="hardAlpha" operator="arithmetic" k2="-1" k3="1" />
<feColorMatrix type="matrix" values="0 0 0 0 0.756863 0 0 0 0 0.756863 0 0 0 0 0.756863 0 0 0 1 0" />
<feBlend mode="normal" in2="effect1_innerShadow_1_2" result="effect2_innerShadow_1_2" />
<feColorMatrix in="SourceAlpha" type="matrix" values="0 0 0 0 0 0 0 0 0 0 0 0 0 0 0 0 0 0 127 0" result="hardAlpha" />
<feOffset dx="1" dy="1" />
<feComposite in2="hardAlpha" operator="arithmetic" k2="-1" k3="1" />
<feColorMatrix type="matrix" values="0 0 0 0 0.501961 0 0 0 0 0.501961 0 0 0 0 0.501961 0 0 0 1 0" />
<feBlend mode="normal" in2="effect2_innerShadow_1_2" result="effect3_innerShadow_1_2" />
<feColorMatrix in="SourceAlpha" type="matrix" values="0 0 0 0 0 0 0 0 0 0 0 0 0 0 0 0 0 0 127 0" result="hardAlpha" />
<feOffset dx="-1" dy="-1" />
<feComposite in2="hardAlpha" operator="arithmetic" k2="-1" k3="1" />
<feColorMatrix type="matrix" values="0 0 0 0 1 0 0 0 0 1 0 0 0 0 1 0 0 0 1 0" />
<feBlend mode="normal" in2="effect3_innerShadow_1_2" result="effect4_innerShadow_1_2" />
</filter>
<filter id="filter3_iiii_1_2" x="198.5" y="161" width="13" height="13" filterUnits="userSpaceOnUse" color-interpolation-filters="sRGB">
<feFlood flood-opacity="0" result="BackgroundImageFix" />
<feBlend mode="normal" in="SourceGraphic" in2="BackgroundImageFix" result="shape" />
<feColorMatrix in="SourceAlpha" type="matrix" values="0 0 0 0 0 0 0 0 0 0 0 0 0 0 0 0 0 0 127 0" result="hardAlpha" />
<feOffset dx="2" dy="2" />
<feComposite in2="hardAlpha" operator="arithmetic" k2="-1" k3="1" />
<feColorMatrix type="matrix" values="0 0 0 0 0 0 0 0 0 0 0 0 0 0 0 0 0 0 1 0" />
<feBlend mode="normal" in2="shape" result="effect1_innerShadow_1_2" />
<feColorMatrix in="SourceAlpha" type="matrix" values="0 0 0 0 0 0 0 0 0 0 0 0 0 0 0 0 0 0 127 0" result="hardAlpha" />
<feOffset dx="-2" dy="-2" />
<feComposite in2="hardAlpha" operator="arithmetic" k2="-1" k3="1" />
<feColorMatrix type="matrix" values="0 0 0 0 0.756863 0 0 0 0 0.756863 0 0 0 0 0.756863 0 0 0 1 0" />
<feBlend mode="normal" in2="effect1_innerShadow_1_2" result="effect2_innerShadow_1_2" />
<feColorMatrix in="SourceAlpha" type="matrix" values="0 0 0 0 0 0 0 0 0 0 0 0 0 0 0 0 0 0 127 0" result="hardAlpha" />
<feOffset dx="1" dy="1" />
<feComposite in2="hardAlpha" operator="arithmetic" k2="-1" k3="1" />
<feColorMatrix type="matrix" values="0 0 0 0 0.501961 0 0 0 0 0.501961 0 0 0 0 0.501961 0 0 0 1 0" />
<feBlend mode="normal" in2="effect2_innerShadow_1_2" result="effect3_innerShadow_1_2" />
<feColorMatrix in="SourceAlpha" type="matrix" values="0 0 0 0 0 0 0 0 0 0 0 0 0 0 0 0 0 0 127 0" result="hardAlpha" />
<feOffset dx="-1" dy="-1" />
<feComposite in2="hardAlpha" operator="arithmetic" k2="-1" k3="1" />
<feColorMatrix type="matrix" values="0 0 0 0 1 0 0 0 0 1 0 0 0 0 1 0 0 0 1 0" />
<feBlend mode="normal" in2="effect3_innerShadow_1_2" result="effect4_innerShadow_1_2" />
</filter>
<filter id="filter4_iiii_1_2" x="321.5" y="161" width="13" height="13" filterUnits="userSpaceOnUse" color-interpolation-filters="sRGB">
<feFlood flood-opacity="0" result="BackgroundImageFix" />
<feBlend mode="normal" in="SourceGraphic" in2="BackgroundImageFix" result="shape" />
<feColorMatrix in="SourceAlpha" type="matrix" values="0 0 0 0 0 0 0 0 0 0 0 0 0 0 0 0 0 0 127 0" result="hardAlpha" />
<feOffset dx="2" dy="2" />
<feComposite in2="hardAlpha" operator="arithmetic" k2="-1" k3="1" />
<feColorMatrix type="matrix" values="0 0 0 0 0 0 0 0 0 0 0 0 0 0 0 0 0 0 1 0" />
<feBlend mode="normal" in2="shape" result="effect1_innerShadow_1_2" />
<feColorMatrix in="SourceAlpha" type="matrix" values="0 0 0 0 0 0 0 0 0 0 0 0 0 0 0 0 0 0 127 0" result="hardAlpha" />
<feOffset dx="-2" dy="-2" />
<feComposite in2="hardAlpha" operator="arithmetic" k2="-1" k3="1" />
<feColorMatrix type="matrix" values="0 0 0 0 0.756863 0 0 0 0 0.756863 0 0 0 0 0.756863 0 0 0 1 0" />
<feBlend mode="normal" in2="effect1_innerShadow_1_2" result="effect2_innerShadow_1_2" />
<feColorMatrix in="SourceAlpha" type="matrix" values="0 0 0 0 0 0 0 0 0 0 0 0 0 0 0 0 0 0 127 0" result="hardAlpha" />
<feOffset dx="1" dy="1" />
<feComposite in2="hardAlpha" operator="arithmetic" k2="-1" k3="1" />
<feColorMatrix type="matrix" values="0 0 0 0 0.501961 0 0 0 0 0.501961 0 0 0 0 0.501961 0 0 0 1 0" />
<feBlend mode="normal" in2="effect2_innerShadow_1_2" result="effect3_innerShadow_1_2" />
<feColorMatrix in="SourceAlpha" type="matrix" values="0 0 0 0 0 0 0 0 0 0 0 0 0 0 0 0 0 0 127 0" result="hardAlpha" />
<feOffset dx="-1" dy="-1" />
<feComposite in2="hardAlpha" operator="arithmetic" k2="-1" k3="1" />
<feColorMatrix type="matrix" values="0 0 0 0 1 0 0 0 0 1 0 0 0 0 1 0 0 0 1 0" />
<feBlend mode="normal" in2="effect3_innerShadow_1_2" result="effect4_innerShadow_1_2" />
</filter>
<filter id="filter5_iiii_1_2" x="485" y="87" width="13" height="13" filterUnits="userSpaceOnUse" color-interpolation-filters="sRGB">
<feFlood flood-opacity="0" result="BackgroundImageFix" />
<feBlend mode="normal" in="SourceGraphic" in2="BackgroundImageFix" result="shape" />
<feColorMatrix in="SourceAlpha" type="matrix" values="0 0 0 0 0 0 0 0 0 0 0 0 0 0 0 0 0 0 127 0" result="hardAlpha" />
<feOffset dx="2" dy="2" />
<feComposite in2="hardAlpha" operator="arithmetic" k2="-1" k3="1" />
<feColorMatrix type="matrix" values="0 0 0 0 0 0 0 0 0 0 0 0 0 0 0 0 0 0 1 0" />
<feBlend mode="normal" in2="shape" result="effect1_innerShadow_1_2" />
<feColorMatrix in="SourceAlpha" type="matrix" values="0 0 0 0 0 0 0 0 0 0 0 0 0 0 0 0 0 0 127 0" result="hardAlpha" />
<feOffset dx="-2" dy="-2" />
<feComposite in2="hardAlpha" operator="arithmetic" k2="-1" k3="1" />
<feColorMatrix type="matrix" values="0 0 0 0 0.756863 0 0 0 0 0.756863 0 0 0 0 0.756863 0 0 0 1 0" />
<feBlend mode="normal" in2="effect1_innerShadow_1_2" result="effect2_innerShadow_1_2" />
<feColorMatrix in="SourceAlpha" type="matrix" values="0 0 0 0 0 0 0 0 0 0 0 0 0 0 0 0 0 0 127 0" result="hardAlpha" />
<feOffset dx="1" dy="1" />
<feComposite in2="hardAlpha" operator="arithmetic" k2="-1" k3="1" />
<feColorMatrix type="matrix" values="0 0 0 0 0.501961 0 0 0 0 0.501961 0 0 0 0 0.501961 0 0 0 1 0" />
<feBlend mode="normal" in2="effect2_innerShadow_1_2" result="effect3_innerShadow_1_2" />
<feColorMatrix in="SourceAlpha" type="matrix" values="0 0 0 0 0 0 0 0 0 0 0 0 0 0 0 0 0 0 127 0" result="hardAlpha" />
<feOffset dx="-1" dy="-1" />
<feComposite in2="hardAlpha" operator="arithmetic" k2="-1" k3="1" />
<feColorMatrix type="matrix" values="0 0 0 0 1 0 0 0 0 1 0 0 0 0 1 0 0 0 1 0" />
<feBlend mode="normal" in2="effect3_innerShadow_1_2" result="effect4_innerShadow_1_2" />
</filter>
<filter id="filter6_iiii_1_2" x="485" y="116" width="13" height="13" filterUnits="userSpaceOnUse" color-interpolation-filters="sRGB">
<feFlood flood-opacity="0" result="BackgroundImageFix" />
<feBlend mode="normal" in="SourceGraphic" in2="BackgroundImageFix" result="shape" />
<feColorMatrix in="SourceAlpha" type="matrix" values="0 0 0 0 0 0 0 0 0 0 0 0 0 0 0 0 0 0 127 0" result="hardAlpha" />
<feOffset dx="2" dy="2" />
<feComposite in2="hardAlpha" operator="arithmetic" k2="-1" k3="1" />
<feColorMatrix type="matrix" values="0 0 0 0 0 0 0 0 0 0 0 0 0 0 0 0 0 0 1 0" />
<feBlend mode="normal" in2="shape" result="effect1_innerShadow_1_2" />
<feColorMatrix in="SourceAlpha" type="matrix" values="0 0 0 0 0 0 0 0 0 0 0 0 0 0 0 0 0 0 127 0" result="hardAlpha" />
<feOffset dx="-2" dy="-2" />
<feComposite in2="hardAlpha" operator="arithmetic" k2="-1" k3="1" />
<feColorMatrix type="matrix" values="0 0 0 0 0.756863 0 0 0 0 0.756863 0 0 0 0 0.756863 0 0 0 1 0" />
<feBlend mode="normal" in2="effect1_innerShadow_1_2" result="effect2_innerShadow_1_2" />
<feColorMatrix in="SourceAlpha" type="matrix" values="0 0 0 0 0 0 0 0 0 0 0 0 0 0 0 0 0 0 127 0" result="hardAlpha" />
<feOffset dx="1" dy="1" />
<feComposite in2="hardAlpha" operator="arithmetic" k2="-1" k3="1" />
<feColorMatrix type="matrix" values="0 0 0 0 0.501961 0 0 0 0 0.501961 0 0 0 0 0.501961 0 0 0 1 0" />
<feBlend mode="normal" in2="effect2_innerShadow_1_2" result="effect3_innerShadow_1_2" />
<feColorMatrix in="SourceAlpha" type="matrix" values="0 0 0 0 0 0 0 0 0 0 0 0 0 0 0 0 0 0 127 0" result="hardAlpha" />
<feOffset dx="-1" dy="-1" />
<feComposite in2="hardAlpha" operator="arithmetic" k2="-1" k3="1" />
<feColorMatrix type="matrix" values="0 0 0 0 1 0 0 0 0 1 0 0 0 0 1 0 0 0 1 0" />
<feBlend mode="normal" in2="effect3_innerShadow_1_2" result="effect4_innerShadow_1_2" />
</filter>
<filter id="filter7_iiii_1_2" x="485" y="145" width="13" height="13" filterUnits="userSpaceOnUse" color-interpolation-filters="sRGB">
<feFlood flood-opacity="0" result="BackgroundImageFix" />
<feBlend mode="normal" in="SourceGraphic" in2="BackgroundImageFix" result="shape" />
<feColorMatrix in="SourceAlpha" type="matrix" values="0 0 0 0 0 0 0 0 0 0 0 0 0 0 0 0 0 0 127 0" result="hardAlpha" />
<feOffset dx="2" dy="2" />
<feComposite in2="hardAlpha" operator="arithmetic" k2="-1" k3="1" />
<feColorMatrix type="matrix" values="0 0 0 0 0 0 0 0 0 0 0 0 0 0 0 0 0 0 1 0" />
<feBlend mode="normal" in2="shape" result="effect1_innerShadow_1_2" />
<feColorMatrix in="SourceAlpha" type="matrix" values="0 0 0 0 0 0 0 0 0 0 0 0 0 0 0 0 0 0 127 0" result="hardAlpha" />
<feOffset dx="-2" dy="-2" />
<feComposite in2="hardAlpha" operator="arithmetic" k2="-1" k3="1" />
<feColorMatrix type="matrix" values="0 0 0 0 0.756863 0 0 0 0 0.756863 0 0 0 0 0.756863 0 0 0 1 0" />
<feBlend mode="normal" in2="effect1_innerShadow_1_2" result="effect2_innerShadow_1_2" />
<feColorMatrix in="SourceAlpha" type="matrix" values="0 0 0 0 0 0 0 0 0 0 0 0 0 0 0 0 0 0 127 0" result="hardAlpha" />
<feOffset dx="1" dy="1" />
<feComposite in2="hardAlpha" operator="arithmetic" k2="-1" k3="1" />
<feColorMatrix type="matrix" values="0 0 0 0 0.501961 0 0 0 0 0.501961 0 0 0 0 0.501961 0 0 0 1 0" />
<feBlend mode="normal" in2="effect2_innerShadow_1_2" result="effect3_innerShadow_1_2" />
<feColorMatrix in="SourceAlpha" type="matrix" values="0 0 0 0 0 0 0 0 0 0 0 0 0 0 0 0 0 0 127 0" result="hardAlpha" />
<feOffset dx="-1" dy="-1" />
<feComposite in2="hardAlpha" operator="arithmetic" k2="-1" k3="1" />
<feColorMatrix type="matrix" values="0 0 0 0 1 0 0 0 0 1 0 0 0 0 1 0 0 0 1 0" />
<feBlend mode="normal" in2="effect3_innerShadow_1_2" result="effect4_innerShadow_1_2" />
</filter>
<filter id="filter8_iiii_1_2" x="485" y="174" width="13" height="13" filterUnits="userSpaceOnUse" color-interpolation-filters="sRGB">
<feFlood flood-opacity="0" result="BackgroundImageFix" />
<feBlend mode="normal" in="SourceGraphic" in2="BackgroundImageFix" result="shape" />
<feColorMatrix in="SourceAlpha" type="matrix" values="0 0 0 0 0 0 0 0 0 0 0 0 0 0 0 0 0 0 127 0" result="hardAlpha" />
<feOffset dx="2" dy="2" />
<feComposite in2="hardAlpha" operator="arithmetic" k2="-1" k3="1" />
<feColorMatrix type="matrix" values="0 0 0 0 0 0 0 0 0 0 0 0 0 0 0 0 0 0 1 0" />
<feBlend mode="normal" in2="shape" result="effect1_innerShadow_1_2" />
<feColorMatrix in="SourceAlpha" type="matrix" values="0 0 0 0 0 0 0 0 0 0 0 0 0 0 0 0 0 0 127 0" result="hardAlpha" />
<feOffset dx="-2" dy="-2" />
<feComposite in2="hardAlpha" operator="arithmetic" k2="-1" k3="1" />
<feColorMatrix type="matrix" values="0 0 0 0 0.756863 0 0 0 0 0.756863 0 0 0 0 0.756863 0 0 0 1 0" />
<feBlend mode="normal" in2="effect1_innerShadow_1_2" result="effect2_innerShadow_1_2" />
<feColorMatrix in="SourceAlpha" type="matrix" values="0 0 0 0 0 0 0 0 0 0 0 0 0 0 0 0 0 0 127 0" result="hardAlpha" />
<feOffset dx="1" dy="1" />
<feComposite in2="hardAlpha" operator="arithmetic" k2="-1" k3="1" />
<feColorMatrix type="matrix" values="0 0 0 0 0.501961 0 0 0 0 0.501961 0 0 0 0 0.501961 0 0 0 1 0" />
<feBlend mode="normal" in2="effect2_innerShadow_1_2" result="effect3_innerShadow_1_2" />
<feColorMatrix in="SourceAlpha" type="matrix" values="0 0 0 0 0 0 0 0 0 0 0 0 0 0 0 0 0 0 127 0" result="hardAlpha" />
<feOffset dx="-1" dy="-1" />
<feComposite in2="hardAlpha" operator="arithmetic" k2="-1" k3="1" />
<feColorMatrix type="matrix" values="0 0 0 0 1 0 0 0 0 1 0 0 0 0 1 0 0 0 1 0" />
<feBlend mode="normal" in2="effect3_innerShadow_1_2" result="effect4_innerShadow_1_2" />
</filter>
<filter id="filter9_iiii_1_2" x="169" y="328" width="13" height="13" filterUnits="userSpaceOnUse" color-interpolation-filters="sRGB">
<feFlood flood-opacity="0" result="BackgroundImageFix" />
<feBlend mode="normal" in="SourceGraphic" in2="BackgroundImageFix" result="shape" />
<feColorMatrix in="SourceAlpha" type="matrix" values="0 0 0 0 0 0 0 0 0 0 0 0 0 0 0 0 0 0 127 0" result="hardAlpha" />
<feOffset dx="2" dy="2" />
<feComposite in2="hardAlpha" operator="arithmetic" k2="-1" k3="1" />
<feColorMatrix type="matrix" values="0 0 0 0 0 0 0 0 0 0 0 0 0 0 0 0 0 0 1 0" />
<feBlend mode="normal" in2="shape" result="effect1_innerShadow_1_2" />
<feColorMatrix in="SourceAlpha" type="matrix" values="0 0 0 0 0 0 0 0 0 0 0 0 0 0 0 0 0 0 127 0" result="hardAlpha" />
<feOffset dx="-2" dy="-2" />
<feComposite in2="hardAlpha" operator="arithmetic" k2="-1" k3="1" />
<feColorMatrix type="matrix" values="0 0 0 0 0.756863 0 0 0 0 0.756863 0 0 0 0 0.756863 0 0 0 1 0" />
<feBlend mode="normal" in2="effect1_innerShadow_1_2" result="effect2_innerShadow_1_2" />
<feColorMatrix in="SourceAlpha" type="matrix" values="0 0 0 0 0 0 0 0 0 0 0 0 0 0 0 0 0 0 127 0" result="hardAlpha" />
<feOffset dx="1" dy="1" />
<feComposite in2="hardAlpha" operator="arithmetic" k2="-1" k3="1" />
<feColorMatrix type="matrix" values="0 0 0 0 0.501961 0 0 0 0 0.501961 0 0 0 0 0.501961 0 0 0 1 0" />
<feBlend mode="normal" in2="effect2_innerShadow_1_2" result="effect3_innerShadow_1_2" />
<feColorMatrix in="SourceAlpha" type="matrix" values="0 0 0 0 0 0 0 0 0 0 0 0 0 0 0 0 0 0 127 0" result="hardAlpha" />
<feOffset dx="-1" dy="-1" />
<feComposite in2="hardAlpha" operator="arithmetic" k2="-1" k3="1" />
<feColorMatrix type="matrix" values="0 0 0 0 1 0 0 0 0 1 0 0 0 0 1 0 0 0 1 0" />
<feBlend mode="normal" in2="effect3_innerShadow_1_2" result="effect4_innerShadow_1_2" />
</filter>
<mask id="path-2-inside-1_1_2" fill="white">
<path d="M145 76H265V137H145V76Z" />
</mask>
<mask id="path-20-inside-4_1_2" fill="white">
<path d="M145 304H264V365H145V304Z" />
</mask>
<mask id="path-4-inside-2_1_2" fill="white">
<path d="M265 76H391V137H265V76Z" />
</mask>
<mask id="path-7-inside-3_1_2" fill="white">
<path d="M145 137H265V198H145V137Z" />
</mask>
</defs></svg>