<svg xmlns="http://www.w3.org/2000/svg" width="60" height="24" viewBox="386 185 60 24" fill="none"><g id="Button"><g id="Button_12"><g id="State=Pressed" filter="url(#filter7_iiii_1_2)">
<rect width="60" height="24" transform="translate(386 185)" fill="#C0C0C0" />
<path id="Button_14" d="M403.562 195.611H406.202V196.491H403.562V199.131H406.202V200H402.693V192.091H406.202V192.971H403.562V195.611ZM407.082 199.131H406.202V196.491H407.082V199.131ZM407.082 195.611H406.202V192.971H407.082V195.611ZM410.833 200.011H409.062V199.131H410.833V200.011ZM409.062 199.131H408.193V194.731H409.062V199.131ZM411.702 194.731H412.582V200H411.702V199.131H410.822V198.251H411.702V194.731ZM415.442 195.611H414.562V199.131H413.693V192.971H414.562V194.731H415.442V195.611ZM415.442 200.011H414.562V199.131H415.442V200.011ZM418.299 195.611H417.419V199.131H416.55V192.971H417.419V194.731H418.299V195.611ZM418.299 200.011H417.419V199.131H418.299V200.011ZM422.916 200.011H420.276V199.131H422.916V200.011ZM420.276 199.131H419.407V195.611H420.276V199.131ZM422.916 195.611H420.276V194.731H422.916V195.611ZM423.796 199.131H422.916V195.611H423.796V199.131ZM425.776 194.731V195.611H426.656V196.491H425.776V200H424.907V194.731H425.776ZM429.296 200.011H428.416V195.611H429.296V200.011ZM428.416 195.611H426.656V194.731H428.416V195.611Z" fill="black" />
</g>
</g></g><defs><filter id="filter7_iiii_1_2" x="386" y="185" width="60" height="24" filterUnits="userSpaceOnUse" color-interpolation-filters="sRGB">
<feFlood flood-opacity="0" result="BackgroundImageFix" />
<feBlend mode="normal" in="SourceGraphic" in2="BackgroundImageFix" result="shape" />
<feColorMatrix in="SourceAlpha" type="matrix" values="0 0 0 0 0 0 0 0 0 0 0 0 0 0 0 0 0 0 127 0" result="hardAlpha" />
<feOffset dx="2" dy="2" />
<feComposite in2="hardAlpha" operator="arithmetic" k2="-1" k3="1" />
<feColorMatrix type="matrix" values="0 0 0 0 0.501961 0 0 0 0 0.501961 0 0 0 0 0.501961 0 0 0 1 0" />
<feBlend mode="normal" in2="shape" result="effect1_innerShadow_1_2" />
<feColorMatrix in="SourceAlpha" type="matrix" values="0 0 0 0 0 0 0 0 0 0 0 0 0 0 0 0 0 0 127 0" result="hardAlpha" />
<feOffset dx="-2" dy="-2" />
<feComposite in2="hardAlpha" operator="arithmetic" k2="-1" k3="1" />
<feColorMatrix type="matrix" values="0 0 0 0 0.768627 0 0 0 0 0.768627 0 0 0 0 0.768627 0 0 0 1 0" />
<feBlend mode="normal" in2="effect1_innerShadow_1_2" result="effect2_innerShadow_1_2" />
<feColorMatrix in="SourceAlpha" type="matrix" values="0 0 0 0 0 0 0 0 0 0 0 0 0 0 0 0 0 0 127 0" result="hardAlpha" />
<feOffset dx="1" dy="1" />
<feComposite in2="hardAlpha" operator="arithmetic" k2="-1" k3="1" />
<feColorMatrix type="matrix" values="0 0 0 0 0 0 0 0 0 0 0 0 0 0 0 0 0 0 1 0" />
<feBlend mode="normal" in2="effect2_innerShadow_1_2" result="effect3_innerShadow_1_2" />
<feColorMatrix in="SourceAlpha" type="matrix" values="0 0 0 0 0 0 0 0 0 0 0 0 0 0 0 0 0 0 127 0" result="hardAlpha" />
<feOffset dx="-1" dy="-1" />
<feComposite in2="hardAlpha" operator="arithmetic" k2="-1" k3="1" />
<feColorMatrix type="matrix" values="0 0 0 0 1 0 0 0 0 1 0 0 0 0 1 0 0 0 1 0" />
<feBlend mode="normal" in2="effect3_innerShadow_1_2" result="effect4_innerShadow_1_2" />
</filter>
</defs></svg>